<?xml version="1.0" encoding="utf-8"?>
<!-- Generator: Adobe Illustrator 19.2.1, SVG Export Plug-In . SVG Version: 6.00 Build 0)  -->
<svg version="1.1" id="Layer_1" xmlns="http://www.w3.org/2000/svg" xmlns:xlink="http://www.w3.org/1999/xlink" x="0px" y="0px"
	 viewBox="0 0 367.5 149.4" style="enable-background:new 0 0 367.5 149.4;" xml:space="preserve">
<style type="text/css">
	.st0{fill:#ECA621;}
	.st1{fill:#9F4E23;}
	.st2{fill:#BD5C30;}
</style>
<g>
	<path class="st0" d="M287.6,8.6c-14.2-3.1-40.2-8.5-73.9-4.6C171.4,9,169.6,22.5,124.1,31c-49,9.1-61.2-4-83.6,10.2
		C11.5,59.5-7,105.8,7.5,126.6c20.1,28.8,83-21,192.1-3c62.4,10.3,84,33.6,116.7,17.7c36.1-17.6,59.6-70.4,43.6-100.1
		C349.5,22,325,16.7,287.6,8.6z"/>
	<g>
		<path class="st1" d="M157.8,25.1c0.5,0.6,1.2,1.5,2.1,2.8c0.9,1.3,1.7,2.7,2.6,4.3c0.8,1.6,1.5,3.3,2.1,5.1
			c0.5,1.8,0.7,3.5,0.5,5.1c-0.3,2.4-1.3,5.3-3.1,8.7c-1.7,3.4-3.9,7-6.4,10.9c-2.5,3.9-5.3,7.8-8.3,11.9c-3,4-6,7.9-8.8,11.5
			c-2.9,3.6-5.5,6.9-7.8,9.9c-2.3,2.9-4.1,5.2-5.2,6.9c-0.7,1-1,1.9-1,2.5c0,0.7,0.2,0.9,0.8,0.7c0.1-0.1,1-0.3,2.5-0.5
			c1.5-0.3,3.4-0.7,5.7-1.1c2.3-0.5,4.7-1,7.4-1.5c2.7-0.5,5.3-1,7.8-1.4c2.5-0.4,4.9-0.7,7-1c2.1-0.3,3.7-0.4,4.7-0.4
			c1.5,0,2.8,0.2,3.9,0.7c1.2,0.5,2.2,1.1,3.2,1.8c0.9,0.7,1.7,1.5,2.4,2.3c0.7,0.8,1.2,1.6,1.6,2.3c0.5,0.9,0.7,1.5,0.7,1.8
			c-0.1,0.3-0.3,0.5-0.7,0.7c-0.4,0.1-0.9,0.1-1.6,0.1c-0.7,0-1.3,0-2,0.1c-1.6,0.2-3.6,0.4-5.9,0.6c-2.4,0.2-4.9,0.4-7.7,0.7
			c-2.8,0.3-5.6,0.5-8.4,0.8c-2.8,0.3-5.5,0.6-8.1,1c-2.5,0.4-4.8,0.8-6.8,1.3c-2,0.5-3.5,1-4.4,1.6c-1.9,0.1-3.7-0.5-5.4-1.7
			c-1.7-1.2-3.3-2.6-4.6-4.2c-1.3-1.6-2.3-3.2-2.9-4.8c-0.7-1.6-0.8-2.8-0.5-3.5c0.9-2,2.3-4.6,4.4-7.7c2.1-3.1,4.4-6.6,7.1-10.3
			c2.7-3.7,5.6-7.7,8.7-11.8c3.1-4.1,6.1-8.2,9-12.3c2.9-4.1,5.7-8,8.2-11.9c2.5-3.8,4.6-7.3,6.2-10.5c1.1-2.1,1.3-3.5,0.5-4
			c-0.8-0.6-2.1-0.7-3.9-0.3c-1.8,0.4-4,1.2-6.5,2.3c-2.5,1.1-5.1,2.4-7.7,3.7c-2.6,1.3-5.1,2.7-7.4,4c-2.3,1.3-4.1,2.3-5.4,3.1
			c-3.5,1.9-6.9,2.8-10.1,2.7c-3.3-0.1-6.2-0.8-8.9-2.2c-2.7-1.4-4.9-3.3-6.9-5.7c-1.9-2.4-3.3-4.9-4-7.6c-0.6-2-0.6-3,0-3
			c0.6,0,1.5,0.5,2.6,1.5c1.6,1.5,3.5,2.3,5.8,2.7c2.3,0.3,4.8,0.3,7.5-0.1c2.7-0.4,5.5-1.1,8.5-2.1c3-1,6-2,9-3.1
			c3-1.1,6-2.1,8.8-3.1c2.9-1,5.5-1.7,8-2.2c2.5-0.5,4.7-0.6,6.7-0.3C155.1,23,156.6,23.8,157.8,25.1z"/>
		<path class="st1" d="M192.4,76.1c-0.2-0.6-0.1-1,0.3-1.3c0.4-0.3,1-0.4,1.7-0.4c0.7,0,1.5,0.1,2.2,0.2c0.7,0.1,1.3,0.2,1.6,0.3
			c1.2,0.4,2,1,2.5,1.7c0.5,0.7,0.9,1.7,1.2,2.9c0.4,1.5,0.6,2.7,0.6,3.8c0,1.1,0,2.3-0.2,3.6c0,0.6,0,1.2-0.1,1.8
			c0,0.6-0.1,1.2-0.1,1.8c0,1.6,0.1,2.8,0.3,3.5c0.1,0.6,0.4,0.7,0.7,0.5c0.3-0.3,0.7-0.8,1.1-1.5c0.4-0.8,0.9-1.7,1.4-2.8
			c0.5-1.1,1-2.2,1.5-3.4h-0.1c0.9-3,1.6-5.8,2.1-8.3c0.5-2.6,0.9-4.6,1.1-6c0.3-0.5,0.7-0.8,1.2-0.9c0.5-0.1,1-0.1,1.5,0.2
			c0.5,0.2,0.9,0.6,1.3,1.1c0.4,0.5,0.6,1.1,0.6,1.7l-0.3,1.9c-0.3,1.6-0.7,3.5-1.1,5.8s-1,4.6-1.6,6.9c-0.4,1.4-0.9,2.9-1.5,4.5
			c-0.6,1.6-1.3,3.1-2.1,4.4c-0.8,1.3-1.8,2.3-2.9,3.1c-1.1,0.7-2.5,0.8-4,0.2c-2.4-1.1-4.3-2.5-5.7-4.2c-1.4-1.7-2.4-3.5-3.1-5.3
			c-1.2,2-2.7,3.7-4.2,5.3c-1.6,1.6-3.5,2.7-5.7,3.3c-0.6,0.1-1.1,0.3-1.7,0.3c-0.5,0.1-1,0.1-1.5,0.1c-3.1,0-5.6-1.1-7.6-3.2
			c-2-2.1-3.4-4.8-4.2-8c-0.4-1.5-0.6-2.9-0.7-4.4c-0.1-1.5,0-3,0.2-4.4c0.3-1.7,0.9-3.6,1.7-5.8c0.8-2.2,2-4.2,3.5-6.2
			c1.5-2,3.4-3.6,5.8-4.9c2.3-1.3,5.2-1.9,8.5-1.9c1.4,0.1,2.7,0.5,4.1,1.3c1.3,0.8,2.5,1.7,3.6,2.8c1.1,1.1,1.9,2.2,2.6,3.4
			c0.7,1.2,1.1,2.3,1.3,3.2c0.1,0.4,0,0.7-0.5,0.9c-0.5,0.2-1,0.3-1.6,0.3c-0.7,0-1.4-0.1-2.1-0.4c-0.7-0.3-1.1-0.7-1.3-1.3
			c-0.1-0.2-0.2-0.6-0.5-1c-0.3-0.5-0.6-0.9-0.9-1.4c-0.4-0.4-0.8-0.8-1.3-1.1c-0.5-0.3-1-0.5-1.5-0.4c-1.3,0.1-2.5,0.5-3.7,1.4
			c-1.1,0.8-2.1,1.9-3,3.3c-0.9,1.3-1.6,2.9-2.2,4.6c-0.6,1.7-1.1,3.4-1.4,5.2c-0.7,4-0.7,7.1-0.2,9.3c0.4,1.9,1.3,2.8,2.6,2.8
			c0.1,0,0.4-0.1,0.8-0.2c0.4-0.1,0.8-0.3,1.1-0.4H183c1.9-1.5,3.6-3.5,5.2-5.9c1.6-2.4,2.9-4.8,3.9-7.1c0.1-0.9,0.2-1.8,0.5-2.5
			C192.8,78,192.7,77.2,192.4,76.1z"/>
		<path class="st1" d="M223.2,73.3c-1.1,1.1-1.9,2.2-2.5,3.4c-0.6,1.2-1,2.2-1.3,3.2c-0.3,0.9-0.4,1.8-0.4,2.5c0,0.7,0,1.2,0,1.4
			l-0.1,2.9c-0.1,1.6-0.2,3.5-0.2,5.6c0,2.1,0.2,4,0.6,5.7c0.2,0.8,0.5,1.5,0.7,2.1c0.3,0.6,0.6,1.1,0.9,1.5c-1.2,0.2-2.6,0.2-4,0
			c-1.4-0.2-2.7-0.7-4-1.3c-1.2-0.7-2.3-1.5-3.1-2.6s-1.3-2.4-1.4-4c0-1.2,0-2.7,0-4.6c0-1.9,0-3.9,0.1-6c0-2.1,0.1-4.3,0.1-6.3
			c0-2.1,0.1-3.9,0.2-5.6c-0.1-3.3,0.1-6.7,0.4-10.2c0.4-3.4,0.9-6.8,1.7-10.1c0.8-3.3,1.8-6.4,3.1-9.3c1.3-2.9,2.8-5.6,4.6-8
			c1.5-1.9,3.3-2.8,5.2-2.8c1.5,0,2.9,0.6,4.2,1.9c1.3,1.3,2.2,2.9,2.8,4.7c0.5,3.2,0.6,6.2,0.4,9.2c-0.3,2.9-0.9,5.6-1.9,8
			c-1,2.4-2.3,4.6-4,6.4c-1.7,1.8-3.6,3.2-5.9,4.1c-0.1,0.2-0.1,0.5-0.2,1c-0.1,0.4-0.1,0.9-0.2,1.4c0,0.5-0.1,1-0.2,1.4
			c-0.1,0.4-0.1,0.6-0.1,0.7c1-1,2.2-2,3.7-2.9c1.4-0.9,3-1.4,4.6-1.4c2,0,3.6,0.6,4.8,1.9c1.2,1.2,2.1,2.9,2.7,5
			c0.4,1.5,0.5,3,0.5,4.5c0,1.6-0.3,3.1-0.9,4.6c-0.5,1.5-1.3,2.9-2.4,4.1c-1.1,1.2-2.4,2.2-4,2.9h0.2c0.2,0.1,0.6,0.4,1.2,0.8
			c0.6,0.4,1.3,0.8,2,1.2c0.8,0.4,1.6,0.7,2.5,1c0.9,0.3,1.7,0.4,2.4,0.4c0.9,0,1.8-0.3,2.6-1c0.8-0.7,1.4-2,1.9-3.9
			c0.7-2.4,1.3-4.9,2-7.5c0.7-2.6,1.2-4.8,1.5-6.4c0.1-0.5,0.5-0.8,1-0.9c0.5-0.1,1,0,1.6,0.2c0.5,0.3,1,0.6,1.5,1.1
			c0.4,0.5,0.6,1,0.5,1.7c-0.1,1.5-0.5,3.5-1,6.2c-0.5,2.7-1.1,5.3-1.8,8l-0.5,1.2h0.1c-0.4,1.1-0.8,2.4-1.3,4c-0.5,1.6-1.2,3-2,4.2
			c-0.8,1.3-1.7,2.3-2.8,2.9c-1.1,0.7-2.4,0.7-3.9,0.2c-1.8-0.7-3.6-1.7-5.4-2.9c-1.8-1.2-3.5-2.5-5-3.9c-1.5-1.4-2.8-2.9-3.8-4.3
			c-1-1.5-1.6-2.8-1.7-4c0-0.9,0.3-1.7,0.9-2.3c0.6-0.9,1.1-1.8,1.7-2.6c0.5-0.8,1.1-1.4,1.6-2c0.7-0.9,1.4-1.7,1.9-2.4
			c0.5-0.7,0.8-1.4,0.8-2c0.2-1.6-0.1-2.5-0.9-2.7c-0.8-0.2-1.6,0.1-2.2,1H223.2z M226.2,40.5c-1.2,3-2.4,6-3.4,9
			c-1.1,3.1-1.9,6.3-2.5,9.7c2-2,3.5-4.6,4.6-7.8c1.1-3.3,1.8-6.7,1.9-10.4c0.1-0.3,0.1-0.6,0.1-1c0-0.4-0.1-0.6-0.2-0.8
			c-0.1,0-0.2,0.4-0.4,1.2H226.2z"/>
		<path class="st1" d="M257,73.3c-1.1,1.1-1.9,2.2-2.5,3.4c-0.6,1.2-1,2.2-1.3,3.2c-0.3,0.9-0.4,1.8-0.4,2.5c0,0.7,0,1.2,0,1.4
			l-0.1,2.9c-0.1,1.6-0.2,3.5-0.2,5.6c0,2.1,0.2,4,0.6,5.7c0.2,0.8,0.5,1.5,0.7,2.1c0.3,0.6,0.6,1.1,0.9,1.5c-1.2,0.2-2.6,0.2-4,0
			c-1.4-0.2-2.7-0.7-4-1.3c-1.2-0.7-2.3-1.5-3.1-2.6s-1.3-2.4-1.4-4c0-1.2,0-2.7,0-4.6c0-1.9,0-3.9,0.1-6c0-2.1,0.1-4.3,0.1-6.3
			c0-2.1,0.1-3.9,0.2-5.6c-0.1-3.3,0.1-6.7,0.4-10.2c0.4-3.4,0.9-6.8,1.7-10.1c0.8-3.3,1.8-6.4,3.1-9.3c1.3-2.9,2.8-5.6,4.6-8
			c1.5-1.9,3.3-2.8,5.2-2.8c1.5,0,2.9,0.6,4.2,1.9c1.3,1.3,2.2,2.9,2.8,4.7c0.5,3.2,0.6,6.2,0.4,9.2c-0.3,2.9-0.9,5.6-1.9,8
			c-1,2.4-2.3,4.6-4,6.4c-1.7,1.8-3.6,3.2-5.9,4.1c-0.1,0.2-0.1,0.5-0.2,1c-0.1,0.4-0.1,0.9-0.2,1.4c0,0.5-0.1,1-0.2,1.4
			c-0.1,0.4-0.1,0.6-0.1,0.7c1-1,2.2-2,3.7-2.9c1.4-0.9,3-1.4,4.6-1.4c2,0,3.6,0.6,4.8,1.9c1.2,1.2,2.1,2.9,2.7,5
			c0.4,1.5,0.5,3,0.5,4.5c0,1.6-0.3,3.1-0.9,4.6c-0.5,1.5-1.3,2.9-2.4,4.1c-1.1,1.2-2.4,2.2-4,2.9h0.2c0.2,0.1,0.6,0.4,1.2,0.8
			c0.6,0.4,1.3,0.8,2,1.2c0.8,0.4,1.6,0.7,2.5,1c0.9,0.3,1.7,0.4,2.4,0.4c0.9,0,1.8-0.3,2.6-1c0.8-0.7,1.4-2,1.9-3.9
			c0.7-2.4,1.3-4.9,2-7.5c0.7-2.6,1.2-4.8,1.5-6.4c0.1-0.5,0.5-0.8,1-0.9c0.5-0.1,1,0,1.6,0.2c0.5,0.3,1,0.6,1.5,1.1
			c0.4,0.5,0.6,1,0.5,1.7c-0.1,1.5-0.5,3.5-1,6.2c-0.5,2.7-1.1,5.3-1.8,8l-0.5,1.2h0.1c-0.4,1.1-0.8,2.4-1.3,4c-0.5,1.6-1.2,3-2,4.2
			c-0.8,1.3-1.7,2.3-2.8,2.9c-1.1,0.7-2.4,0.7-3.9,0.2c-1.8-0.7-3.6-1.7-5.4-2.9c-1.8-1.2-3.5-2.5-5-3.9c-1.5-1.4-2.8-2.9-3.8-4.3
			c-1-1.5-1.6-2.8-1.7-4c0-0.9,0.3-1.7,0.9-2.3c0.6-0.9,1.1-1.8,1.7-2.6c0.5-0.8,1.1-1.4,1.6-2c0.7-0.9,1.4-1.7,1.9-2.4
			c0.5-0.7,0.8-1.4,0.8-2c0.2-1.6-0.1-2.5-0.9-2.7c-0.8-0.2-1.6,0.1-2.2,1H257z M260,40.5c-1.2,3-2.4,6-3.4,9
			c-1.1,3.1-1.9,6.3-2.5,9.7c2-2,3.5-4.6,4.6-7.8c1.1-3.3,1.8-6.7,1.9-10.4c0.1-0.3,0.1-0.6,0.1-1c0-0.4-0.1-0.6-0.2-0.8
			c-0.1,0-0.2,0.4-0.4,1.2H260z"/>
		<path class="st1" d="M276.4,63.9c-0.2-0.6,0-1,0.5-1.3c0.6-0.3,1.4-0.4,2.4-0.4c1,0,1.9,0.1,2.7,0.4c1.5,0.5,2.6,1.3,3.3,2.4
			c0.8,1.1,1.3,2.3,1.7,3.6c0.1,0.4,0.1,0.8,0.2,1.3c0,0.5,0,1.4,0,2.9c0,1.5-0.1,3.6-0.2,6.3c-0.1,2.8-0.3,6.5-0.5,11.3
			c-0.1,1.4,0,2.6,0.2,3.6c0.1,0.6,0.4,0.7,0.8,0.4c0.4-0.3,0.8-0.8,1.3-1.6c0.5-0.8,1-1.7,1.5-2.8c0.5-1.1,0.9-2.2,1.3-3.4
			c0.7-2.4,1.3-4.9,1.9-7.5c0.5-2.6,0.9-4.9,1.3-6.9h-0.1c0.1-2,0.1-3.7,0.1-5.3c0-1.6,0-2.5-0.1-2.8c-0.3-0.6-0.1-1,0.5-1.3
			c0.6-0.3,1.4-0.4,2.5-0.4c0.4,0,0.9,0,1.4,0.1c0.5,0.1,1,0.2,1.5,0.3c1.4,0.5,2.4,1.3,3.2,2.4c0.7,1.1,1.3,2.3,1.6,3.6
			c0.2,0.7,0.4,1.4,0.4,2.1c0.1,0.7,0.1,1.3,0.1,1.9c0,1.5,0,2.8,0,4c0,1.2,0,2.4-0.1,3.5c0,1.2-0.1,2.4-0.1,3.6
			c0,1.2-0.1,2.7-0.2,4.2c1.7-2.1,3.3-4.4,4.6-7c1.3-2.6,2.3-5.5,3.1-8.8c0.1-0.4,0.4-0.5,0.9-0.4c0.5,0.1,1.1,0.2,1.6,0.5
			c0.6,0.3,1.1,0.6,1.5,1c0.4,0.4,0.6,0.8,0.5,1.1c-0.8,4.7-2.3,9-4.6,12.7c-2.3,3.8-5,7.1-8.3,10h0.2c-0.4,3.8-0.9,7.6-1.5,11.2
			c-0.6,3.6-1.3,6.7-2.1,9.3c-0.4,1.2-1,2.3-1.8,3.4c-0.8,1.1-1.7,2.1-2.7,3.1c-1,0.9-2.2,1.7-3.4,2.2c-1.3,0.6-2.6,0.9-4.1,0.9
			c-1.5,0-2.8-0.3-4.1-0.8c-1.8-0.7-3.3-1.8-4.5-3.4c-1.2-1.6-2-3.4-2.5-5.2c-0.6-2.4-0.5-4.5,0.2-6.2c0.8-1.9,2.1-3.5,3.9-4.8
			c1.8-1.3,4-2.8,6.8-4.4c0.8-0.5,1.7-1,2.6-1.6c0.9-0.5,1.8-1,2.6-1.5H294c0.1-0.5,0.2-1.1,0.1-1.7c-0.1-0.7-0.1-1.4-0.1-2.2v-0.2
			c-0.4,0.9-0.9,1.7-1.5,2.5c-0.6,0.8-1.2,1.4-1.9,1.9c-0.7,0.5-1.5,0.8-2.3,0.9c-0.8,0.1-1.7,0-2.7-0.4c-3-1.2-5.1-2.7-6.3-4.5
			c-1.2-1.7-2.1-3.7-2.6-5.8c-0.4-1.6-0.6-3.2-0.6-4.9c0-1.7,0-3.4,0.2-5.1l0.1-1.3h-0.1c0.1-1.5,0.1-3,0.2-4.7
			c0-1.7,0.1-3.3,0.1-4.7c0-1.5,0-2.8,0-3.8C276.5,64.8,276.4,64.2,276.4,63.9z M285.8,119.2c0.9,0,1.7-0.3,2.6-0.8
			c0.9-0.5,1.6-1.3,2.1-2.5h-0.1c0.5-1.4,1-2.9,1.4-4.5c0.4-1.6,0.7-3.3,1-5.2c-2,1.3-3.7,2.7-5.3,4.1c-1.6,1.4-2.7,2.9-3.3,4.3
			c-0.5,1.3-0.7,2.4-0.5,3.4C283.9,118.8,284.6,119.2,285.8,119.2z"/>
		<path class="st1" d="M333.1,93.5c-0.1,0.9-0.3,1.6-0.4,2.2c-0.1,0.6-0.4,1.3-0.8,2c-0.9,1.4-2.3,2.4-4.4,3.2
			c-2.1,0.7-4.2,1.1-6.3,1.1c-0.9,0-1.8-0.1-2.6-0.2c-0.8-0.1-1.5-0.3-2.1-0.7c-1.9-1-2.9-2.1-3-3.3c-0.1-1.2,0.2-2.3,1-3.4
			c0.8-1.1,1.9-2,3.2-2.8c1.3-0.8,2.6-1.3,3.7-1.5c-0.8-1.2-1.6-2.3-2.3-3.3c-0.8-1-1.5-2-2.2-3.1c-1.1-1.5-2.2-3-3.3-4.5
			c-1.1-1.6-2.2-3.3-3.3-5.2c-0.4-0.7-0.8-1.4-1.3-2.3c-0.5-0.9-0.8-1.7-0.9-2.5c-0.4-1.3-0.5-2.7-0.5-4.2c0-1.5,0.2-3,0.6-4.3
			c0.4-1.3,1.1-2.5,2-3.5c0.9-1,2.1-1.7,3.7-2c1.7-0.3,3.1,0.1,4.4,1c1.2,1,2,2.1,2.4,3.4c0.4,1.7,0.5,3.7,0.1,5.8
			c-0.4,2.1-0.9,3.7-1.5,4.9c2.5,3.1,5,6.1,7.2,9.1c2.3,3,4,5.7,5.1,8c2.2-1.5,4-3.5,5.4-6c1.5-2.6,2.5-5.2,3.1-7.8
			c0.1-0.6,0.5-0.9,1-1.1c0.5-0.1,1.1-0.1,1.6,0.1c0.6,0.2,1.1,0.5,1.5,0.9c0.4,0.4,0.7,1,0.7,1.6c-0.2,2.4-0.7,4.5-1.5,6.4
			c-0.8,1.9-1.7,3.6-2.8,5c-1.1,1.5-2.3,2.8-3.6,3.9C335.5,91.6,334.3,92.6,333.1,93.5z"/>
	</g>
	<g>
		<path class="st1" d="M87.8,62.2c8.4,5.8,20.9,14.9,17.7,32.8c-2.7,15-17.3,28.4-38.4,32.4c-1.5,5.9-9.8,12.6-17.8,10.8
			c-8.1-1.9-11-9.1-10.2-15.5c0.3-2.5,2.2-6.2,4.7-9.7c6.9,4,13.5-1.6,17.8-7c3.2,4.2,5.4,12,5.7,17.4c15.7-3.4,31.4-12.7,34.3-29
			c2.7-14.8-6.6-22.4-17.5-30C83.8,61,82,56,80,51.9l0,0c-8-13-26.2-10.3-31.8,8.5h0c-2.8,0-5.5,0.6-7.8,2.1
			c-4.7-1.7-8.9-7.2-9.9-13.5c-6,6.7-7.7,16.8-8.1,17.3C13.5,73.4,7.2,84.4,7.2,96c0,9.1,7,16.2,14.3,20.7c2.1-4,7.3-8.9,12.3-12.2
			c2.2,2.8,4.9,5.3,7.8,7.2c-2.6,3.2-4.6,7-5.2,11l0.1,0c-0.2,1.3-0.2,2.7,0,3.9l-0.1,0c0.2,2.3,1,4.6,2.3,6.9
			c-7.4,4.9-19.1-1.4-18.3-13.1C9.9,114.4,3.3,105.7,3.3,96c0-9.5,4.8-23.1,15.7-31.8c1.9-8.1,6.4-16.7,11.7-21.3
			c1.1-4.2,4.1-7,8.1-6.7c2.9,0.2,5.7,1.8,7.9,4.4l0.9-2.1c-2.5-2.7-5.5-4.5-8.7-4.6c-1.3-0.1-2.6,0.1-3.8,0.6
			c-1.1-2.2-1.5-4.8-1.1-7.7c1-6.9,6.7-12.2,12.6-11.9c5.3,0.3,9,4.9,9.1,10.8l1.8-0.1c-0.1-4.8-2.3-8.8-5.5-11.1
			c1.6-4.8,5.7-8.1,10.4-7.9c5.9,0.3,10.5,6.2,10.2,13c-0.1,1.8-0.5,3.5-1.1,5l2.1-0.1c0.5-1.4,0.8-3,0.8-4.7
			c0.1-2.8-0.4-5.4-1.4-7.6c1.7-1.2,2-2,5.9-1.8c3.9,0.2,8.8,4.5,10.3,10.9c2.6,10.6-1.7,21.1-6.4,27.3C85.4,52.9,87.3,58,87.8,62.2
			L87.8,62.2z M47,63.3c7.6,0,14.2,5.1,15,11.9c8.1,1.4,18.1,1.7,16.6,9.9c-1.2,6.6-8.5,5.9-14.7,4.1c1.5,9.4-5.9,22.6-15.5,22.6
			c-10.1,0-18.3-14.4-15.7-24c-5.6,2.5-12.9,5.7-14.6-3.2c-1.1-5.8,6-8.6,14.1-10.1C33.9,71.1,36.2,63.3,47,63.3L47,63.3z M60.4,88
			c-0.6-0.2-1.1-0.4-1.6-0.6c-3.4,1.7-7.7,4.1-12.3,5.3c-3.4-1-7.7-3-10.2-4.9c-0.4,6.3,5.7,14.9,12.1,14.4
			C54.6,101.7,60.3,94.3,60.4,88z M46.6,88.6c3.9-1.2,8.3-3.6,12-5.5c3.3,1.3,12,5.2,15.4,2.8c0.9-0.6,1.2-2.7,0.7-3.5
			c-1.5-2.2-12.4-3.4-16.1-4c-0.8-6.9-4.4-11.6-12.2-11.4c-7.1,0.2-8.9,5.3-11.4,10.8c-2.8,0.5-13.7,2.2-13,5.9
			c1.2,6.3,10.6-0.1,14.1-1.5C39.2,85.4,42.4,87.2,46.6,88.6L46.6,88.6z M28.9,59.4c-2.9,0-5.3,2.4-5.3,5.3c0,2.9,2.4,5.3,5.3,5.3
			c2.9,0,5.3-2.4,5.3-5.3C34.2,61.8,31.8,59.4,28.9,59.4z M30.3,61c-0.9,0-1.6,0.7-1.6,1.6c0,0.9,0.7,1.6,1.6,1.6
			c0.9,0,1.6-0.7,1.6-1.6C31.8,61.7,31.1,61,30.3,61z M67.5,57c2.9,0,5.3,2.4,5.3,5.3s-2.4,5.3-5.3,5.3s-5.3-2.4-5.3-5.3
			S64.5,57,67.5,57z M66.1,58.6c0.9,0,1.6,0.7,1.6,1.6c0,0.9-0.7,1.6-1.6,1.6s-1.6-0.7-1.6-1.6C64.5,59.3,65.2,58.6,66.1,58.6z"/>
	</g>
	<g>
		<path class="st1" d="M276,114.4c-0.1-2.8,1-5.2,2.6-7.4c-6.1,0.3-10,0.6-10,0.6c-46.2,4-29.1,0.7-61.6,4.4
			c-26.9,3-62.8,7.9-105.7,16.3l105.7-8.7c27.5-1.9,51.3-3.2,69.1-3.8C276.1,115.3,276.1,114.9,276,114.4z"/>
		<path class="st1" d="M338.4,116.9c-0.3-2.8-3.2-4.5-3.8-4.9c-8.2-2.1-8.7-2.2-8.7-2.2c-6-1.5-13.2-2.3-20.4-2.7
			c-0.1,0.6-0.2,1.2-0.3,1.8c0,0.3-0.1,0.6-0.2,1c-0.2,0.7-0.3,1.3-0.5,2c-0.1,0.5-0.3,1-0.5,1.5c-0.1,0.7-0.3,1.3-0.5,2
			c0,0.1,0,0.1-0.1,0.2c2.4,0.1,4.3,0.2,5.5,0.4c6,0.8,9.3,2.2,9.3,2.2c7,2.9,8.4,6.9,12.5,6.5C334.5,124.2,338.8,120.6,338.4,116.9
			z"/>
	</g>
	<g>
		<path class="st2" d="M113.2,136.9h-3.4v9.8h-2.3v-9.8h-3.5v-2.1h9.2V136.9z"/>
		<path class="st2" d="M119.5,146.7v-4.8c0-0.7-0.1-1.2-0.3-1.5c-0.2-0.3-0.5-0.5-1-0.5c-0.4,0-0.7,0.1-1,0.4
			c-0.3,0.3-0.5,0.6-0.6,1v5.4h-2.2v-11.8h2.2v4.3h0.1c0.3-0.4,0.6-0.6,1-0.9c0.4-0.2,0.9-0.3,1.5-0.3c0.4,0,0.8,0.1,1.1,0.2
			c0.3,0.1,0.6,0.3,0.8,0.6c0.2,0.3,0.4,0.6,0.5,1.1s0.2,1,0.2,1.6v5.3H119.5z"/>
		<path class="st2" d="M130.3,146c-0.3,0.3-0.8,0.5-1.4,0.7c-0.6,0.2-1.2,0.3-1.8,0.3c-1.4,0-2.4-0.4-3-1.2s-0.9-1.9-0.9-3.3
			c0-1.5,0.4-2.6,1.1-3.3c0.7-0.7,1.7-1.1,3-1.1c0.4,0,0.8,0.1,1.2,0.2c0.4,0.1,0.8,0.3,1.1,0.6c0.3,0.3,0.6,0.6,0.8,1
			c0.2,0.4,0.3,1,0.3,1.6c0,0.2,0,0.5,0,0.8c0,0.3-0.1,0.6-0.1,0.8h-5.1c0,0.7,0.2,1.2,0.5,1.6c0.3,0.4,0.9,0.5,1.6,0.5
			c0.5,0,0.9-0.1,1.2-0.2c0.4-0.1,0.6-0.3,0.8-0.4L130.3,146z M127.1,139.8c-0.6,0-1,0.2-1.3,0.5c-0.3,0.3-0.4,0.8-0.5,1.4h3.1
			c0-0.6,0-1.1-0.3-1.4S127.6,139.8,127.1,139.8z"/>
		<path class="st2" d="M141.6,144.1h-3.6l-0.9,2.6h-2.3l4.3-11.9h1.7l4.3,11.9h-2.4L141.6,144.1z M138.5,142.2h2.5l-0.9-2.6
			l-0.4-1.9h-0.1l-0.4,1.9L138.5,142.2z"/>
		<path class="st2" d="M148,138.2v4.8c0,0.7,0.1,1.2,0.2,1.5c0.2,0.3,0.5,0.5,1,0.5c0.4,0,0.8-0.1,1-0.4c0.3-0.2,0.5-0.6,0.6-0.9
			v-5.5h2.2v5.9c0,0.5,0,0.9,0.1,1.4c0,0.4,0.1,0.8,0.2,1.2h-1.7l-0.4-1.2h-0.1c-0.3,0.4-0.6,0.8-1.1,1.1c-0.5,0.3-1,0.4-1.6,0.4
			c-0.4,0-0.8-0.1-1.1-0.2c-0.3-0.1-0.6-0.3-0.8-0.6c-0.2-0.3-0.4-0.6-0.5-1c-0.1-0.4-0.2-1-0.2-1.7v-5.3H148z"/>
		<path class="st2" d="M154.1,138.2h1.2v-1.6l2.2-0.6v2.2h2.1v1.9h-2.1v3.2c0,0.6,0.1,1,0.2,1.3c0.1,0.3,0.3,0.4,0.7,0.4
			c0.2,0,0.4,0,0.6-0.1c0.2,0,0.3-0.1,0.5-0.2l0.4,1.7c-0.3,0.1-0.7,0.3-1.1,0.4c-0.4,0.1-0.8,0.2-1.2,0.2c-0.8,0-1.3-0.2-1.7-0.6
			c-0.4-0.4-0.5-1.1-0.5-2v-4.3h-1.2V138.2z"/>
		<path class="st2" d="M166.1,146.7v-4.8c0-0.7-0.1-1.2-0.3-1.5c-0.2-0.3-0.5-0.5-1-0.5c-0.4,0-0.7,0.1-1,0.4
			c-0.3,0.3-0.5,0.6-0.6,1v5.4h-2.2v-11.8h2.2v4.3h0.1c0.3-0.4,0.6-0.6,1-0.9s0.9-0.3,1.5-0.3c0.4,0,0.8,0.1,1.1,0.2
			c0.3,0.1,0.6,0.3,0.8,0.6c0.2,0.3,0.4,0.6,0.5,1.1s0.2,1,0.2,1.6v5.3H166.1z"/>
		<path class="st2" d="M176.9,146c-0.3,0.3-0.8,0.5-1.4,0.7c-0.6,0.2-1.2,0.3-1.8,0.3c-1.4,0-2.4-0.4-3-1.2
			c-0.6-0.8-0.9-1.9-0.9-3.3c0-1.5,0.4-2.6,1.1-3.3c0.7-0.7,1.7-1.1,3-1.1c0.4,0,0.8,0.1,1.2,0.2c0.4,0.1,0.8,0.3,1.1,0.6
			c0.3,0.3,0.6,0.6,0.8,1c0.2,0.4,0.3,1,0.3,1.6c0,0.2,0,0.5,0,0.8c0,0.3-0.1,0.6-0.1,0.8h-5.1c0,0.7,0.2,1.2,0.5,1.6
			c0.3,0.4,0.9,0.5,1.6,0.5c0.5,0,0.9-0.1,1.2-0.2c0.4-0.1,0.6-0.3,0.8-0.4L176.9,146z M173.7,139.8c-0.6,0-1,0.2-1.3,0.5
			c-0.3,0.3-0.4,0.8-0.5,1.4h3.1c0-0.6,0-1.1-0.3-1.4S174.2,139.8,173.7,139.8z"/>
		<path class="st2" d="M183.9,146.7v-4.8c0-0.7-0.1-1.2-0.3-1.5c-0.2-0.3-0.5-0.5-1-0.5c-0.4,0-0.8,0.1-1.1,0.4
			c-0.3,0.2-0.5,0.5-0.6,0.9v5.5h-2.2v-8.4h1.7l0.3,1.1h0.1c0.3-0.4,0.6-0.7,1-0.9c0.4-0.3,1-0.4,1.7-0.4c0.4,0,0.8,0.1,1.1,0.2
			c0.3,0.1,0.6,0.3,0.8,0.6c0.2,0.3,0.4,0.6,0.5,1.1c0.1,0.4,0.2,1,0.2,1.6v5.3H183.9z"/>
		<path class="st2" d="M187,138.2h1.2v-1.6l2.2-0.6v2.2h2.1v1.9h-2.1v3.2c0,0.6,0.1,1,0.2,1.3c0.1,0.3,0.3,0.4,0.7,0.4
			c0.2,0,0.4,0,0.6-0.1c0.2,0,0.3-0.1,0.5-0.2l0.4,1.7c-0.3,0.1-0.7,0.3-1.1,0.4c-0.4,0.1-0.8,0.2-1.2,0.2c-0.8,0-1.3-0.2-1.7-0.6
			c-0.4-0.4-0.5-1.1-0.5-2v-4.3H187V138.2z"/>
		<path class="st2" d="M193.7,135.9c0-0.3,0.1-0.6,0.4-0.8c0.2-0.2,0.6-0.3,1-0.3s0.8,0.1,1,0.3c0.3,0.2,0.4,0.5,0.4,0.8
			c0,0.3-0.1,0.6-0.4,0.8c-0.3,0.2-0.6,0.3-1,0.3s-0.8-0.1-1-0.3C193.8,136.5,193.7,136.2,193.7,135.9z M194,138.2h2.2v8.4H194
			V138.2z"/>
		<path class="st2" d="M204.3,146.2c-0.3,0.2-0.7,0.4-1.2,0.6c-0.5,0.1-1,0.2-1.5,0.2c-0.7,0-1.2-0.1-1.7-0.3
			c-0.5-0.2-0.8-0.5-1.1-0.9c-0.3-0.4-0.5-0.9-0.6-1.4c-0.1-0.6-0.2-1.2-0.2-1.8c0-1.4,0.3-2.5,1-3.3c0.6-0.8,1.6-1.2,2.8-1.2
			c0.6,0,1.1,0.1,1.5,0.2c0.4,0.1,0.7,0.2,1,0.4l-0.5,1.8c-0.3-0.1-0.5-0.2-0.8-0.3c-0.3-0.1-0.5-0.1-0.9-0.1
			c-0.6,0-1.1,0.2-1.4,0.6c-0.3,0.4-0.5,1-0.5,1.9c0,0.4,0,0.7,0.1,1s0.2,0.6,0.4,0.8c0.2,0.2,0.4,0.4,0.6,0.5
			c0.3,0.1,0.5,0.2,0.9,0.2c0.4,0,0.7,0,0.9-0.1c0.3-0.1,0.5-0.2,0.7-0.3L204.3,146.2z"/>
		<path class="st2" d="M217,146.7h-7.5v-11.8h2.3v9.8h5.2V146.7z"/>
		<path class="st2" d="M217.2,142.5c0-1.4,0.3-2.5,1-3.3c0.7-0.8,1.7-1.2,2.9-1.2c0.7,0,1.3,0.1,1.8,0.3c0.5,0.2,0.9,0.5,1.2,0.9
			c0.3,0.4,0.6,0.9,0.7,1.4c0.2,0.6,0.2,1.2,0.2,1.8c0,1.4-0.3,2.5-1,3.3c-0.7,0.8-1.7,1.2-2.9,1.2c-0.7,0-1.3-0.1-1.8-0.3
			c-0.5-0.2-0.9-0.5-1.2-0.9c-0.3-0.4-0.6-0.9-0.7-1.4C217.3,143.7,217.2,143.1,217.2,142.5z M219.5,142.5c0,0.4,0,0.7,0.1,1
			c0.1,0.3,0.2,0.6,0.3,0.8c0.1,0.2,0.3,0.4,0.5,0.5c0.2,0.1,0.5,0.2,0.8,0.2c0.6,0,1-0.2,1.3-0.6c0.3-0.4,0.4-1.1,0.4-2
			c0-0.8-0.1-1.4-0.4-1.9c-0.3-0.5-0.7-0.7-1.3-0.7c-0.5,0-1,0.2-1.3,0.6C219.6,140.9,219.5,141.5,219.5,142.5z"/>
		<path class="st2" d="M228.8,138.2v4.8c0,0.7,0.1,1.2,0.2,1.5c0.2,0.3,0.5,0.5,1,0.5c0.4,0,0.8-0.1,1-0.4c0.3-0.2,0.5-0.6,0.6-0.9
			v-5.5h2.2v5.9c0,0.5,0,0.9,0.1,1.4c0,0.4,0.1,0.8,0.2,1.2h-1.7l-0.4-1.2H232c-0.3,0.4-0.6,0.8-1.1,1.1c-0.5,0.3-1,0.4-1.6,0.4
			c-0.4,0-0.8-0.1-1.1-0.2c-0.3-0.1-0.6-0.3-0.8-0.6c-0.2-0.3-0.4-0.6-0.5-1c-0.1-0.4-0.2-1-0.2-1.7v-5.3H228.8z"/>
		<path class="st2" d="M235.6,135.9c0-0.3,0.1-0.6,0.4-0.8c0.2-0.2,0.6-0.3,1-0.3s0.8,0.1,1,0.3c0.3,0.2,0.4,0.5,0.4,0.8
			c0,0.3-0.1,0.6-0.4,0.8c-0.3,0.2-0.6,0.3-1,0.3s-0.8-0.1-1-0.3C235.8,136.5,235.6,136.2,235.6,135.9z M236,138.2h2.2v8.4H236
			V138.2z"/>
		<path class="st2" d="M243.8,144.4c0-0.2-0.1-0.4-0.3-0.5c-0.2-0.1-0.4-0.3-0.7-0.4c-0.3-0.1-0.6-0.2-0.9-0.3
			c-0.3-0.1-0.6-0.3-0.9-0.5c-0.3-0.2-0.5-0.5-0.7-0.8c-0.2-0.3-0.3-0.7-0.3-1.2c0-0.8,0.2-1.5,0.7-1.9c0.5-0.4,1.2-0.7,2.1-0.7
			c0.6,0,1.2,0.1,1.7,0.2c0.5,0.1,0.9,0.3,1.2,0.5l-0.5,1.6c-0.3-0.1-0.6-0.2-1-0.3c-0.4-0.1-0.8-0.2-1.2-0.2c-0.7,0-1,0.3-1,0.8
			c0,0.2,0.1,0.4,0.3,0.5c0.2,0.1,0.4,0.2,0.7,0.3c0.3,0.1,0.6,0.2,0.9,0.3s0.6,0.3,0.9,0.5c0.3,0.2,0.5,0.5,0.7,0.8
			c0.2,0.3,0.3,0.7,0.3,1.2c0,0.9-0.3,1.5-0.8,2c-0.5,0.5-1.4,0.7-2.5,0.7c-0.6,0-1.2-0.1-1.7-0.2c-0.5-0.2-0.9-0.3-1.3-0.5l0.6-1.6
			c0.3,0.1,0.6,0.3,1,0.4c0.4,0.1,0.9,0.2,1.3,0.2c0.3,0,0.6-0.1,0.8-0.2C243.7,144.9,243.8,144.7,243.8,144.4z"/>
		<path class="st2" d="M247.3,135.9c0-0.3,0.1-0.6,0.4-0.8c0.2-0.2,0.6-0.3,1-0.3s0.8,0.1,1,0.3c0.3,0.2,0.4,0.5,0.4,0.8
			c0,0.3-0.1,0.6-0.4,0.8c-0.3,0.2-0.6,0.3-1,0.3s-0.8-0.1-1-0.3C247.4,136.5,247.3,136.2,247.3,135.9z M247.6,138.2h2.2v8.4h-2.2
			V138.2z"/>
		<path class="st2" d="M251.9,138.7c0.5-0.2,1-0.4,1.6-0.5c0.6-0.1,1.3-0.2,1.9-0.2c0.6,0,1.1,0.1,1.5,0.2c0.4,0.1,0.7,0.3,0.9,0.6
			c0.2,0.3,0.4,0.6,0.5,0.9c0.1,0.4,0.1,0.8,0.1,1.2c0,0.5,0,1-0.1,1.5c0,0.5-0.1,1-0.1,1.5c0,0.5,0,1,0,1.4c0,0.5,0.1,0.9,0.3,1.3
			h-1.8l-0.4-1.2h-0.1c-0.2,0.3-0.5,0.7-0.9,0.9c-0.4,0.3-0.9,0.4-1.5,0.4c-0.4,0-0.7-0.1-1.1-0.2c-0.3-0.1-0.6-0.3-0.8-0.5
			c-0.2-0.2-0.4-0.5-0.5-0.8c-0.1-0.3-0.2-0.6-0.2-1c0-0.5,0.1-1,0.3-1.3c0.2-0.4,0.6-0.6,1-0.9c0.4-0.2,1-0.4,1.6-0.5
			c0.6-0.1,1.3-0.1,2-0.1c0.1-0.6,0-1.1-0.1-1.4c-0.2-0.3-0.5-0.4-1.1-0.4c-0.4,0-0.9,0-1.4,0.1c-0.5,0.1-0.9,0.2-1.2,0.4
			L251.9,138.7z M254.7,145c0.4,0,0.8-0.1,1-0.3s0.5-0.4,0.6-0.6V143c-0.3,0-0.7,0-1,0c-0.3,0-0.6,0.1-0.9,0.2
			c-0.2,0.1-0.4,0.2-0.6,0.3c-0.1,0.1-0.2,0.3-0.2,0.6c0,0.3,0.1,0.6,0.3,0.7C254.1,144.9,254.4,145,254.7,145z"/>
		<path class="st2" d="M265.5,146.7v-4.8c0-0.7-0.1-1.2-0.3-1.5c-0.2-0.3-0.5-0.5-1-0.5c-0.4,0-0.8,0.1-1.1,0.4
			c-0.3,0.2-0.5,0.5-0.6,0.9v5.5h-2.2v-8.4h1.7l0.3,1.1h0.1c0.3-0.4,0.6-0.7,1-0.9c0.4-0.3,1-0.4,1.7-0.4c0.4,0,0.8,0.1,1.1,0.2
			c0.3,0.1,0.6,0.3,0.8,0.6c0.2,0.3,0.4,0.6,0.5,1.1c0.1,0.4,0.2,1,0.2,1.6v5.3H265.5z"/>
		<path class="st2" d="M269.5,138.7c0.5-0.2,1-0.4,1.6-0.5c0.6-0.1,1.3-0.2,1.9-0.2c0.6,0,1.1,0.1,1.5,0.2c0.4,0.1,0.7,0.3,0.9,0.6
			c0.2,0.3,0.4,0.6,0.5,0.9c0.1,0.4,0.1,0.8,0.1,1.2c0,0.5,0,1-0.1,1.5c0,0.5-0.1,1-0.1,1.5c0,0.5,0,1,0,1.4c0,0.5,0.1,0.9,0.3,1.3
			h-1.8l-0.4-1.2H274c-0.2,0.3-0.5,0.7-0.9,0.9c-0.4,0.3-0.9,0.4-1.5,0.4c-0.4,0-0.7-0.1-1.1-0.2c-0.3-0.1-0.6-0.3-0.8-0.5
			c-0.2-0.2-0.4-0.5-0.5-0.8c-0.1-0.3-0.2-0.6-0.2-1c0-0.5,0.1-1,0.3-1.3c0.2-0.4,0.6-0.6,1-0.9c0.4-0.2,1-0.4,1.6-0.5
			c0.6-0.1,1.3-0.1,2-0.1c0.1-0.6,0-1.1-0.1-1.4c-0.2-0.3-0.5-0.4-1.1-0.4c-0.4,0-0.9,0-1.4,0.1c-0.5,0.1-0.9,0.2-1.2,0.4
			L269.5,138.7z M272.3,145c0.4,0,0.8-0.1,1-0.3s0.5-0.4,0.6-0.6V143c-0.3,0-0.7,0-1,0c-0.3,0-0.6,0.1-0.9,0.2
			c-0.2,0.1-0.4,0.2-0.6,0.3c-0.1,0.1-0.2,0.3-0.2,0.6c0,0.3,0.1,0.6,0.3,0.7C271.7,144.9,272,145,272.3,145z"/>
		<path class="st2" d="M290,146.2c-0.4,0.3-0.8,0.4-1.4,0.6c-0.6,0.1-1.1,0.2-1.7,0.2c-0.7,0-1.4-0.1-2-0.3
			c-0.6-0.2-1.2-0.6-1.7-1.1c-0.5-0.5-0.9-1.1-1.2-1.9c-0.3-0.8-0.4-1.7-0.4-2.8c0-1.2,0.2-2.1,0.5-2.9c0.3-0.8,0.7-1.4,1.2-1.9
			c0.5-0.5,1.1-0.8,1.7-1c0.6-0.2,1.3-0.3,1.9-0.3c0.7,0,1.2,0,1.7,0.1c0.5,0.1,0.9,0.2,1.2,0.3l-0.5,2c-0.3-0.1-0.6-0.2-0.9-0.3
			c-0.4-0.1-0.8-0.1-1.3-0.1c-0.9,0-1.7,0.3-2.3,1c-0.6,0.7-0.9,1.7-0.9,3.1c0,0.6,0.1,1.2,0.2,1.7c0.1,0.5,0.3,0.9,0.6,1.3
			c0.3,0.4,0.6,0.6,1,0.8c0.4,0.2,0.9,0.3,1.4,0.3c0.5,0,0.9-0.1,1.3-0.2c0.3-0.1,0.7-0.2,0.9-0.4L290,146.2z"/>
		<path class="st2" d="M296.6,146.7v-4.8c0-0.7-0.1-1.2-0.3-1.5c-0.2-0.3-0.5-0.5-1-0.5c-0.4,0-0.7,0.1-1,0.4
			c-0.3,0.3-0.5,0.6-0.6,1v5.4h-2.2v-11.8h2.2v4.3h0.1c0.3-0.4,0.6-0.6,1-0.9c0.4-0.2,0.9-0.3,1.5-0.3c0.4,0,0.8,0.1,1.1,0.2
			c0.3,0.1,0.6,0.3,0.8,0.6c0.2,0.3,0.4,0.6,0.5,1.1c0.1,0.4,0.2,1,0.2,1.6v5.3H296.6z"/>
		<path class="st2" d="M300.5,135.9c0-0.3,0.1-0.6,0.4-0.8c0.2-0.2,0.6-0.3,1-0.3s0.8,0.1,1,0.3c0.3,0.2,0.4,0.5,0.4,0.8
			c0,0.3-0.1,0.6-0.4,0.8c-0.3,0.2-0.6,0.3-1,0.3s-0.8-0.1-1-0.3C300.6,136.5,300.5,136.2,300.5,135.9z M300.8,138.2h2.2v8.4h-2.2
			V138.2z"/>
		<path class="st2" d="M311.2,146.2c-0.3,0.2-0.7,0.4-1.2,0.6c-0.5,0.1-1,0.2-1.5,0.2c-0.7,0-1.2-0.1-1.7-0.3
			c-0.5-0.2-0.8-0.5-1.1-0.9c-0.3-0.4-0.5-0.9-0.6-1.4c-0.1-0.6-0.2-1.2-0.2-1.8c0-1.4,0.3-2.5,1-3.3c0.6-0.8,1.6-1.2,2.8-1.2
			c0.6,0,1.1,0.1,1.5,0.2c0.4,0.1,0.7,0.2,1,0.4l-0.5,1.8c-0.3-0.1-0.5-0.2-0.8-0.3c-0.3-0.1-0.5-0.1-0.9-0.1
			c-0.6,0-1.1,0.2-1.4,0.6c-0.3,0.4-0.5,1-0.5,1.9c0,0.4,0,0.7,0.1,1c0.1,0.3,0.2,0.6,0.4,0.8c0.2,0.2,0.4,0.4,0.6,0.5
			c0.3,0.1,0.5,0.2,0.9,0.2c0.4,0,0.7,0,0.9-0.1c0.3-0.1,0.5-0.2,0.7-0.3L311.2,146.2z"/>
		<path class="st2" d="M315.3,143.2h-0.6v3.5h-2.2v-11.8h2.2v7l0.5-0.2l1.9-3.4h2.4l-2,3.2l-0.9,0.6l0.9,0.7l2.3,3.9h-2.5
			L315.3,143.2z"/>
		<path class="st2" d="M327.3,146c-0.3,0.3-0.8,0.5-1.4,0.7c-0.6,0.2-1.2,0.3-1.8,0.3c-1.4,0-2.4-0.4-3-1.2s-0.9-1.9-0.9-3.3
			c0-1.5,0.4-2.6,1.1-3.3c0.7-0.7,1.7-1.1,3-1.1c0.4,0,0.8,0.1,1.2,0.2c0.4,0.1,0.8,0.3,1.1,0.6c0.3,0.3,0.6,0.6,0.8,1
			c0.2,0.4,0.3,1,0.3,1.6c0,0.2,0,0.5,0,0.8c0,0.3-0.1,0.6-0.1,0.8h-5.1c0,0.7,0.2,1.2,0.5,1.6c0.3,0.4,0.9,0.5,1.6,0.5
			c0.5,0,0.9-0.1,1.2-0.2c0.4-0.1,0.6-0.3,0.8-0.4L327.3,146z M324.2,139.8c-0.6,0-1,0.2-1.3,0.5c-0.3,0.3-0.4,0.8-0.5,1.4h3.1
			c0-0.6,0-1.1-0.3-1.4S324.7,139.8,324.2,139.8z"/>
		<path class="st2" d="M334.3,146.7v-4.8c0-0.7-0.1-1.2-0.3-1.5c-0.2-0.3-0.5-0.5-1-0.5c-0.4,0-0.8,0.1-1.1,0.4
			c-0.3,0.2-0.5,0.5-0.6,0.9v5.5h-2.2v-8.4h1.7l0.3,1.1h0.1c0.3-0.4,0.6-0.7,1-0.9c0.4-0.3,1-0.4,1.7-0.4c0.4,0,0.8,0.1,1.1,0.2
			c0.3,0.1,0.6,0.3,0.8,0.6c0.2,0.3,0.4,0.6,0.5,1.1c0.1,0.4,0.2,1,0.2,1.6v5.3H334.3z"/>
	</g>
</g>
</svg>
