<?xml version="1.0" encoding="utf-8"?>
<!-- Generator: Adobe Illustrator 19.2.1, SVG Export Plug-In . SVG Version: 6.00 Build 0)  -->
<svg version="1.1" id="Layer_1" xmlns="http://www.w3.org/2000/svg" xmlns:xlink="http://www.w3.org/1999/xlink" x="0px" y="0px"
	 viewBox="0 0 367.5 149.4" style="enable-background:new 0 0 367.5 149.4;" xml:space="preserve">
<style type="text/css">
	.st0{fill:#DFA426;}
	.st1{fill:#A91E23;}
	.st2{fill:#FFFFFF;}
	.st3{fill:#CE2439;}
</style>
<g>
	<g>
		<g>
			<path class="st0" d="M94,58.8l26,6.4L114.4,81L73.6,68.1l3.3-14l38.9-27.6l-27.6-5.5l4.8-17l42,13.2l-4.3,13.4L94,58.8z"/>
		</g>
		<g>
			<path class="st0" d="M154.1,91.1L152.6,78l-18-1.8l-4.2,10.3l-12.1-3.7l28.2-62.6l8.3,2.2l12.9,66.8L154.1,91.1z M139.7,64.1
				l11,0.6l-2.8-19.7L139.7,64.1z"/>
		</g>
		<g>
			<path class="st0" d="M199.7,92l-12.9-20.3l-0.1,0v22.1l-11.7-1.3l-2.6-67.3l14.3-0.6v24.3l13.8-21l10.6,3.4l-15.5,28L211.8,89
				L199.7,92z"/>
		</g>
		<g>
			<path class="st0" d="M248.7,84.3l-16.5-17.5l-0.1,0.1l4.2,21.7l-11.7,1l-15.3-65.6l13.9-3.3l4.6,23.8l9.5-23.2l11.1,1.3L238.6,53
				L260,79L248.7,84.3z"/>
		</g>
		<g>
			<path class="st0" d="M259,9.1l11.6,19.2l3.8-24L289.9,3l-9.6,39.4l5.6,28.3l-13.5,6.2L267.4,45l-22.7-31.1L259,9.1z"/>
		</g>
	</g>
	<g>
		<g>
			<path class="st1" d="M327.3,94.8c4-0.4,8.4-1.1,11.7-3.7c1.8-1.1,3.3-3.3,2.9-5.1c-0.4-1.8-1.1-2.6-1.1-4s0.4-2.6-0.4-4
				c-0.4-1.1-1.5-1.5-1.8-2.6c0-0.7,0.4-1.8,0.4-2.6c0-2.2-2.6-2.6-4-4c-1.5-2.2-0.4-5.5-1.1-7.7c-0.7-2.2-4-3.3-6.2-1.8
				c-1.5,0.7-1.8,1.8-2.6,3.3c-2.2,4.4-4.7,8.4-6.9,12.8c-8.8-6.6-21.2-7.3-31.4-2.2C222.5,104.7,147,105,82.4,74.7
				c-9.9-4.7-21.2-4.4-29.6,1.1c-2.2-3.7-4-7.7-6.6-11.7c-0.7-1.5-1.1-2.6-2.6-3.3c-2.2-1.5-5.5-0.4-6.2,1.8
				c-1.1,2.6,0.7,5.8-1.1,7.7c-1.5,1.5-4,1.8-4,4c0,0.7,0.4,1.8,0.4,2.6c-0.4,1.1-1.1,1.8-1.8,2.6c-0.4,1.1,0,2.9-0.4,4
				c-0.4,1.1-0.7,2.2-1.1,3.3c0,2.2,1.1,4,2.9,5.1c2.6,1.8,5.8,2.9,9.1,3.3c0.7,9.5,7.3,19,18.6,24.5c78.8,38,170.8,37.2,249-0.7
				C319.6,113.4,326.2,103.9,327.3,94.8z"/>
		</g>
	</g>
	<g>
		<g>
			<path class="st2" d="M71.3,103.8c0.9-2,1.4-3,2.3-5.1c-2.5-1.1-3.8-1.7-6.3-2.9c-1,2-1.4,3-2.4,5c-0.8-0.4-1.2-0.6-1.9-0.9
				c2.2-4.5,3.3-6.7,5.5-11.2c0.7,0.4,1.1,0.5,1.8,0.9c-0.9,1.9-1.4,2.9-2.3,4.8c2.5,1.2,3.7,1.8,6.3,2.9c0.9-1.9,1.3-2.9,2.2-4.8
				c0.7,0.3,1.1,0.5,1.9,0.8c-2,4.6-3,6.9-5,11.4C72.5,104.3,72.1,104.2,71.3,103.8z"/>
			<path class="st2" d="M89.2,104.4c-1.4,3.7-4.6,5.2-8.3,3.7c-3.7-1.5-5-4.8-3.4-8.4c1.6-3.7,4.7-5,8.2-3.6
				C89.3,97.6,90.6,100.7,89.2,104.4z M79.5,100.6c-1.1,2.7-0.3,5,2.1,6c2.4,1,4.6-0.2,5.6-2.9c1.1-2.7,0.3-5-2.1-5.9
				C82.8,96.8,80.7,97.9,79.5,100.6z"/>
			<path class="st2" d="M91.4,111.9c1.5-4.1,2.2-6.1,3.6-10.2c-1.5-0.6-2.3-0.8-3.8-1.4c0.2-0.6,0.4-0.9,0.6-1.6
				c3.8,1.4,5.7,2.1,9.6,3.4c-0.2,0.6-0.3,1-0.5,1.6c-1.5-0.5-2.3-0.8-3.9-1.3c-1.4,4.1-2.1,6.1-3.6,10.2
				C92.6,112.3,92.2,112.2,91.4,111.9z"/>
			<path class="st2" d="M107.4,104c3.7,1.1,5.3,3.9,4.2,7.7c-1.1,3.8-4,5.4-7.9,4.2c-1.9-0.6-2.8-0.9-4.7-1.5
				c1.5-4.8,2.3-7.1,3.9-11.9C104.7,103.2,105.6,103.5,107.4,104z M101.6,113.6c1,0.3,1.5,0.5,2.4,0.8c2.7,0.8,4.7-0.3,5.5-3.1
				c0.8-2.8-0.2-4.8-2.9-5.6c-0.9-0.3-1.4-0.4-2.4-0.7C103.2,108.3,102.7,110.1,101.6,113.6z"/>
			<path class="st2" d="M125,115.2c-0.9,3.9-3.8,5.8-7.6,4.8c-3.8-0.9-5.5-4-4.4-7.8c1.1-3.8,4-5.6,7.6-4.7
				C124.2,108.4,125.9,111.3,125,115.2z M115,112.7c-0.7,2.8,0.3,5,2.8,5.6c2.5,0.6,4.5-0.8,5.1-3.6c0.7-2.8-0.4-5-2.8-5.6
				C117.8,108.5,115.8,109.9,115,112.7z"/>
			<path class="st2" d="M131.3,123.1c-3.8-0.7-5.6-3.7-4.8-7.6c0.8-3.9,3.6-5.7,7.2-5c2.8,0.6,4.7,2.5,4.7,5.1
				c-0.8-0.1-1.2-0.2-2.1-0.4c-0.2-1.6-1.3-2.7-2.9-3c-2.4-0.5-4.3,0.9-4.9,3.8c-0.6,2.9,0.6,5.1,3.1,5.6c2.1,0.4,3.9-0.6,4.2-2.5
				c0-0.1,0-0.1,0-0.2c-1.4-0.2-2-0.4-3.4-0.6c0.1-0.6,0.2-0.9,0.3-1.5c2.1,0.4,3.2,0.6,5.3,1c-0.1,0.5-0.1,0.8-0.2,1.3
				C137.3,122.2,134.9,123.8,131.3,123.1z"/>
			<path class="st2" d="M141.1,121.1c-0.1,1.2,1.1,2.3,2.8,2.5c1.7,0.2,3-0.4,3.1-1.5c0.1-1-0.5-1.6-2.1-2.3c-0.7-0.3-1-0.4-1.6-0.6
				c-2.3-0.9-3.2-2.2-3-3.9c0.4-2.1,2.5-3.3,5.2-2.9c2.7,0.4,4.3,2.1,4.1,4.3c-0.8-0.1-1.2-0.2-2-0.3c0.1-1.3-0.9-2.1-2.4-2.4
				c-1.5-0.2-2.7,0.4-2.9,1.4c-0.1,0.9,0.5,1.5,2.1,2.1c0.6,0.2,0.8,0.3,1.4,0.5c2.6,1,3.6,2.1,3.3,4c-0.3,2.3-2.5,3.5-5.7,3.1
				c-3-0.4-4.7-2.2-4.5-4.4C139.9,120.9,140.3,120.9,141.1,121.1z"/>
			<path class="st2" d="M163.7,127.2c0.4-5,0.6-7.5,0.9-12.5c3.2,0.2,4.8,0.3,8,0.5c0,0.7,0,1-0.1,1.7c-2.4-0.1-3.6-0.2-6.1-0.3
				c-0.1,1.6-0.2,2.4-0.3,4c2.3,0.2,3.4,0.2,5.6,0.3c0,0.7,0,1-0.1,1.6c-2.3-0.1-3.4-0.2-5.7-0.3c-0.1,2.1-0.2,3.1-0.3,5.2
				C165,127.3,164.6,127.3,163.7,127.2z"/>
			<path class="st2" d="M176,127.9c-0.8,0-1.3,0-2.1-0.1c0.2-5,0.3-7.5,0.5-12.5c2,0.1,3,0.1,5,0.1c2.6,0,4.3,1.5,4.3,3.9
				c0,1.7-1,3.1-2.6,3.6c1.2,2.1,1.8,3.1,3,5.1c-1,0-1.4,0-2.4,0c-1.1-1.9-1.6-2.9-2.7-4.8c-1.2,0-1.7,0-2.9-0.1
				C176.1,125,176.1,126,176,127.9z M176.2,121.5c1.2,0,1.8,0,2.9,0.1c1.6,0,2.5-0.8,2.5-2.2c0-1.4-0.9-2.3-2.5-2.3
				c-1.1,0-1.7,0-2.8-0.1C176.3,118.8,176.3,119.7,176.2,121.5z"/>
			<path class="st2" d="M185.7,128c0-5,0-7.5-0.1-12.5c0.8,0,1.2,0,2,0c0.1,5,0.1,7.5,0.2,12.5C187,128,186.6,128,185.7,128z"/>
			<path class="st2" d="M198.9,127.6c-3.4,0.2-5.1,0.2-8.5,0.3c-0.1-5-0.2-7.5-0.3-12.5c3.3-0.1,4.9-0.1,8.2-0.3
				c0,0.7,0.1,1,0.1,1.7c-2.5,0.1-3.7,0.2-6.2,0.3c0,1.5,0.1,2.2,0.1,3.7c2.4-0.1,3.6-0.1,5.9-0.2c0,0.6,0.1,1,0.1,1.6
				c-2.4,0.1-3.6,0.2-6,0.2c0,1.6,0.1,2.3,0.1,3.9c2.6-0.1,3.8-0.1,6.4-0.3C198.8,126.6,198.8,126.9,198.9,127.6z"/>
			<path class="st2" d="M202.2,123.9c0.2,1.2,1.6,2,3.3,1.8c1.7-0.1,2.8-1.1,2.7-2.2c-0.1-1-0.9-1.5-2.6-1.7c-0.7-0.1-1-0.2-1.7-0.3
				c-2.5-0.4-3.6-1.4-3.7-3.1c-0.1-2.2,1.7-3.7,4.4-4c2.7-0.2,4.7,1.1,5,3.2c-0.8,0.1-1.2,0.1-2,0.2c-0.2-1.2-1.4-1.9-2.9-1.8
				c-1.6,0.1-2.6,1-2.5,2.1c0.1,0.9,0.8,1.4,2.5,1.6c0.6,0.1,0.9,0.1,1.5,0.2c2.7,0.4,4,1.3,4.1,3.1c0.2,2.3-1.6,4-4.8,4.2
				c-3,0.2-5.1-1.1-5.3-3.3C201,124,201.4,124,202.2,123.9z"/>
			<path class="st2" d="M225.7,124.9c-0.8-4.9-1.1-7.4-1.9-12.4c2.1-0.3,3.1-0.5,5.2-0.8c2.2-0.4,3.9,0.5,4.3,2.4
				c0.2,1.3-0.5,2.7-1.8,3.1c0,0,0,0,0,0.1c1.8-0.1,3.2,0.8,3.5,2.5c0.4,2.2-1,3.8-3.9,4.3C229,124.4,227.9,124.5,225.7,124.9z
				 M226.6,117.5c1-0.2,1.4-0.2,2.4-0.4c1.8-0.3,2.6-1.2,2.4-2.4c-0.2-1.1-1.1-1.6-2.6-1.4c-1.1,0.2-1.7,0.3-2.8,0.5
				C226.3,115.2,226.4,116,226.6,117.5z M230.5,122.5c1.9-0.3,2.7-1.2,2.5-2.5c-0.2-1.3-1.4-1.8-3.3-1.5c-1.1,0.2-1.7,0.3-2.8,0.5
				c0.3,1.6,0.4,2.4,0.6,4.1C228.7,122.8,229.3,122.7,230.5,122.5z"/>
			<path class="st2" d="M238.6,117.9c0.4,1.7,1.8,2.7,3.9,2.3c2.1-0.5,3-2,2.6-3.7c-0.7-3.1-1.1-4.6-1.8-7.7
				c0.8-0.2,1.2-0.3,1.9-0.5c0.8,3.2,1.1,4.7,1.9,7.9c0.6,2.6-1,5-4.3,5.7c-3.3,0.7-5.7-0.8-6.3-3.4c-0.6-3.2-0.9-4.8-1.6-8
				c0.8-0.2,1.2-0.2,2-0.4C237.7,113.3,238,114.8,238.6,117.9z"/>
			<path class="st2" d="M252.7,119.4c-0.8,0.2-1.2,0.3-2,0.5c-1.2-4.9-1.8-7.3-3-12.1c2-0.5,3-0.7,4.9-1.3c2.6-0.7,4.6,0.3,5.2,2.5
				c0.5,1.6-0.1,3.2-1.5,4.1c1.7,1.7,2.6,2.5,4.3,4.1c-0.9,0.3-1.4,0.4-2.3,0.7c-1.6-1.6-2.4-2.3-3.9-3.9c-1.1,0.3-1.7,0.5-2.8,0.7
				C252,116.6,252.2,117.5,252.7,119.4z M251.1,113.2c1.1-0.3,1.7-0.4,2.9-0.7c1.5-0.4,2.2-1.5,1.8-2.8c-0.4-1.3-1.5-1.9-3-1.5
				c-1.1,0.3-1.7,0.4-2.8,0.7C250.4,110.6,250.6,111.5,251.1,113.2z"/>
			<path class="st2" d="M267.8,115.3c-3.7,1.2-6.8-0.6-7.9-4.4c-1.1-3.8,0.4-6.8,4-7.9c2.8-0.9,5.4,0,6.6,2.2
				c-0.8,0.3-1.2,0.4-2,0.7c-1-1.3-2.4-1.8-4.1-1.2c-2.4,0.8-3.3,2.9-2.5,5.7c0.9,2.9,2.9,4.2,5.4,3.4c2.1-0.7,3.1-2.4,2.6-4.2
				c0-0.1,0-0.1-0.1-0.2c-1.3,0.4-2,0.7-3.3,1.1c-0.2-0.6-0.3-0.9-0.5-1.5c2.1-0.7,3.1-1,5.2-1.7c0.2,0.5,0.2,0.7,0.4,1.2
				C272.7,111.5,271.3,114.1,267.8,115.3z"/>
			<path class="st2" d="M283.4,109.6c-3.2,1.2-4.9,1.8-8.1,3c-1.7-4.7-2.5-7.1-4.1-11.8c3.1-1.1,4.7-1.7,7.8-2.9
				c0.2,0.6,0.4,0.9,0.6,1.6c-2.4,0.9-3.5,1.3-5.9,2.2c0.5,1.4,0.7,2.1,1.2,3.4c2.3-0.8,3.4-1.2,5.7-2.1c0.2,0.6,0.3,0.9,0.6,1.5
				c-2.3,0.9-3.4,1.3-5.7,2.1c0.5,1.5,0.8,2.2,1.3,3.7c2.5-0.9,3.7-1.3,6.1-2.3C283,108.6,283.2,108.9,283.4,109.6z"/>
			<path class="st2" d="M287.4,108c-0.8,0.3-1.2,0.5-2,0.8c-1.8-4.7-2.8-7-4.6-11.6c1.9-0.8,2.9-1.1,4.8-1.9c2.5-1,4.6-0.4,5.6,1.8
				c0.7,1.5,0.3,3.2-1,4.3c1.9,1.4,2.9,2.1,4.8,3.5c-0.9,0.4-1.4,0.6-2.3,1c-1.8-1.3-2.7-2-4.4-3.4c-1.1,0.5-1.6,0.7-2.7,1.1
				C286.3,105.3,286.7,106.2,287.4,108z M285,102.1c1.1-0.4,1.7-0.7,2.8-1.1c1.5-0.6,2-1.7,1.5-3.1c-0.5-1.3-1.8-1.7-3.2-1.1
				c-1.1,0.4-1.6,0.7-2.7,1.1C284,99.6,284.3,100.4,285,102.1z"/>
			<path class="st2" d="M296.5,100.3c0.6,1.1,2.2,1.3,3.8,0.5c1.6-0.7,2.3-2,1.9-3c-0.4-0.9-1.3-1.1-3.1-0.7
				c-0.7,0.2-1.1,0.2-1.8,0.4c-2.5,0.5-4,0-4.7-1.6c-0.9-2,0.3-4.1,2.9-5.3c2.5-1.2,4.9-0.7,5.9,1.2c-0.7,0.4-1.1,0.5-1.8,0.9
				c-0.6-1.1-2-1.3-3.4-0.6c-1.4,0.7-2.1,1.8-1.7,2.8c0.4,0.8,1.2,1,3,0.6c0.6-0.1,0.9-0.2,1.5-0.3c2.8-0.6,4.2-0.2,5,1.4
				c1,2.1-0.2,4.3-3.1,5.7c-2.8,1.3-5.2,0.8-6.3-1.2C295.3,100.8,295.7,100.7,296.5,100.3z"/>
		</g>
	</g>
	<g>
		<path class="st3" d="M62.9,111.2c-0.4,0.9,16.5,9.1,34.3,15.5c17.8,6.4,33.2,9.9,44.1,11.9c0,0,54,9.5,112.9-5.3
			c34.6-8.7,45.8-20.2,59.3-25.2c0.8-0.3,3.6-1.3,3.5-2.5c-0.1-1.2-3.1-2.3-5-2.5c-6.6-0.8-12.4,6.8-13.5,8.2
			c-11.7,14.2-61.3,21.7-72.8,23.4c-11.1,1.7-56,7.7-111.1-6.4C85.6,120.8,63.3,110.2,62.9,111.2z"/>
	</g>
</g>
</svg>
