<?xml version="1.0" encoding="utf-8"?>
<!-- Generator: Adobe Illustrator 19.2.1, SVG Export Plug-In . SVG Version: 6.00 Build 0)  -->
<svg version="1.1" id="Layer_1" xmlns="http://www.w3.org/2000/svg" xmlns:xlink="http://www.w3.org/1999/xlink" x="0px" y="0px"
	 viewBox="0 0 367.5 149.4" style="enable-background:new 0 0 367.5 149.4;" xml:space="preserve">
<style type="text/css">
	.st0{fill:#F04C23;}
	.st1{fill:#EFA85A;}
	.st2{fill:#010101;}
	.st3{fill:#F15E22;}
	.st4{fill:#BF8236;}
	.st5{fill:#B71F39;}
	.st6{fill:#04A04F;}
	.st7{fill:#C52026;}
</style>
<g>
	<path class="st0" d="M23.5,48.4C9.5,58.6,2.4,63.8,2.1,69.1c-1,17.5,48.3,35.4,83.1,43.1c34.2,7.6,110.1,17.6,122.7-10.7
		c6.1-13.8-5.3-31.1-10.7-39.3C169.3,19.9,105.4,8.9,65.2,24C48.9,30.1,32.4,42,23.5,48.4z"/>
	<g>
		<path d="M60.1,33.7v10.8L37,99.9h23.1v11H24.5v-10.8l23.1-55.4H25.6v-11H60.1z"/>
		<path d="M105.4,110.9H93.1l-2.1-14H76.2l-2.1,14H62.9l12.4-77.2H93L105.4,110.9z M77.7,86.4h11.7l-5.7-39h-0.2L77.7,86.4z"/>
		<path d="M125.8,80.2l-3.8,7.1v23.7h-12.1V33.7H122v33.4h0.2l15.7-33.4H150l-16.9,34.4l16.9,42.8h-12.5L125.8,80.2z"/>
		<path d="M170.2,32.8c11.8,0,17.9,7.1,17.9,19.4v2.4h-11.5v-3.2c0-5.5-2.2-7.6-6.1-7.6c-3.9,0-6.1,2.1-6.1,7.6
			c0,5.6,2.4,9.8,10.4,16.8c10.1,8.9,13.3,15.3,13.3,24.2c0,12.4-6.2,19.4-18.1,19.4c-11.9,0-18.1-7.1-18.1-19.4v-4.7h11.5v5.5
			c0,5.5,2.4,7.5,6.3,7.5c3.9,0,6.3-2,6.3-7.5c0-5.6-2.4-9.8-10.4-16.8c-10.1-8.9-13.3-15.3-13.3-24.2
			C152.4,39.9,158.4,32.8,170.2,32.8z"/>
	</g>
	<g>
		<path class="st1" d="M328.4,52.3c-16.7-1.7-17.7,0.9-32.4,0.4c-8.8-0.3-15.3,0.1-20.6,0.7c-16.8,2-26.9,7-42,8
			c-1,0.1-3.6,0.2-6.3,1.8c-5.7,3.4-8.9,11.9-7.7,16.8c3.3,13.9,44.5,16.2,66.5,15.4c0,0,18.5,0.2,53.5-9.7
			c5.5-1.5,14.2-4.2,17.4-11.7c0.3-0.7,3-6.9,0.1-11.6C353.6,57.2,346.2,54.1,328.4,52.3z"/>
		<path class="st2" d="M363.7,43c4.2-12.1,0.5-24.3-8.2-27.3c-8.7-3-19.1,4.4-23.3,16.5c-1.6,4.5-2,9.1-1.5,13.1
			c-12.5-2.9-28.1-4.5-45.1-4.1c-29.2,0.6-54.2,6.9-66,15.3c0.2,0.2,0.3,0.4,0.5,0.7c2.2,3.1,4.1,6.4,5.8,9.8
			c11.2-6.2,33.8-10.7,60-11.3c37.5-0.8,68,6.8,68.3,17.1v0.2c0.5-0.5,1-1,1.4-1.5c1.4-1.6,2.2-3.2,2.4-4.3c0.3-0.9,0.2-1.6,0.3-1.7
			c0,0.1,0.1,0.8-0.1,1.7c-0.2,1.2-0.8,2.9-2.2,4.6c-0.5,0.7-1.2,1.4-2,2.1c-3,2.8-7.6,5.6-13.2,7.9c-7,2.8-15.5,5.2-24.8,6.8
			c-9.3,1.6-19.3,2.5-29.3,2.8c-10,0.2-20.1-0.3-29.4-1.5c-9.3-1.2-17.9-3.2-25.1-5.7c-1.7-0.6-3.2-1.2-4.7-1.9
			c0.3-2.7-0.7-6.9-2.7-11.6c-1.6-3.8-4-8-6.8-12c-11.3-16.2-17.6-14.3-18.5-13.6c-5,4.4,3.4,19.2,8.3,26.1
			c3.5,4.9,7.1,8.9,10.3,11.4c9.8,16.5,32.5,37.4,68.6,36.9c54.4-0.7,73.3-41.9,73-55.4c-0.1-2.9-1.7-5.7-4.6-8.2
			C358.8,52.8,361.8,48.3,363.7,43z M222.5,79.6c-1.5-0.9-2.8-1.9-3.9-2.8c-0.7-0.6-1.4-1.3-1.9-1.9c-1.5-1.7-2.1-3.4-2.4-4.5
			c-0.2-0.9-0.2-1.4-0.2-1.7c0,0.2,0.1,0.8,0.3,1.6c0.3,1.1,1.1,2.6,2.6,4.2c0.4,0.4,0.9,0.9,1.4,1.3c0-0.1,0-0.1,0-0.1
			c0-1,0.2-1.9,0.7-2.8c-1-2.7-2.7-6.2-5.4-10c-0.8,1.5-1.2,2.9-1.2,4.5c0.1,2.9,1.2,6.9,3.5,11.5c-2.4-1.9-5.1-4.8-7.7-8.5
			c-4.6-6.5-8.1-18-6.5-19.1c6-4.4,18.6,16.8,19.2,19.4c0,0,0,0,0,0C222.7,74.5,223.3,77.8,222.5,79.6z M351.7,53.2
			c-4.2-2.6-9.7-4.9-16.5-6.8c-1.1-3.8-1-8.4,0.6-13c3.2-9.4,11.3-15.1,18.1-12.7c6.8,2.3,9.7,11.8,6.4,21.2
			C358.6,47,355.3,51,351.7,53.2z"/>
		<polygon class="st3" points="343.3,74.9 344.1,68.7 329.2,60.8 322.2,73.1 		"/>
		<path class="st4" d="M288.7,75.1c-0.2,0.8-3.6,0.7-7.6-0.2c-4-0.9-3.8-1.6-3.6-2.4c0.2-0.8,0.3-1.5,4.3-0.6
			C285.8,72.9,288.9,74.3,288.7,75.1z"/>
		<path class="st5" d="M305.6,62.1v14.6l5.3,0.3l0,0l11.4-12.3l-1.6-5.6c-1.5-0.2-10.7-0.6-10.7-0.6L305.6,62.1z"/>
		<path class="st6" d="M232.8,82.5c6.8,2.4,14.8,4.3,23.3,5.4l2.7,0.2l2.6-14.9L228,74l0,0.2c0.7,2.3,1.3,4.7,1.3,6.9
			C230.5,81.6,231.6,82.1,232.8,82.5z"/>
		<path class="st7" d="M305.5,79.3c0.1,0.8-3.2,1.8-7.3,2.2c-4.1,0.4-4.1-0.3-4.2-1.1c-0.1-0.8-0.2-1.5,3.9-1.9
			C302,78.2,305.4,78.5,305.5,79.3z"/>
		<path class="st7" d="M267.4,64.4c0.1,0.8-3.2,1.8-7.3,2.2c-4.1,0.4-4.1-0.3-4.2-1.1c-0.1-0.8-0.2-1.5,3.9-1.9
			C264,63.2,267.4,63.6,267.4,64.4z"/>
		<path class="st4" d="M278.9,66.5c-0.4,0.7-3.7-0.1-7.4-1.9c-3.7-1.8-3.4-2.4-3-3.1s0.6-1.4,4.3,0.4
			C276.6,63.6,279.3,65.7,278.9,66.5z"/>
		<path class="st4" d="M332.6,80.2c-0.2,0.8-3.6,0.7-7.6-0.2c-4-0.9-3.8-1.6-3.6-2.4c0.2-0.8,0.3-1.5,4.3-0.6
			C329.6,78,332.8,79.4,332.6,80.2z"/>
		<path class="st7" d="M298.9,63.9c0.1,0.8-3.2,1.8-7.3,2.2c-4.1,0.4-4.1-0.3-4.2-1.1c-0.1-0.8-0.2-1.5,3.9-1.9
			C295.4,62.7,298.8,63.1,298.9,63.9z"/>
		<path class="st4" d="M244.3,68.5c0.1,0.8-3.2,1.8-7.3,2.2c-4.1,0.4-4.1-0.3-4.2-1.1c-0.1-0.8-0.2-1.5,3.9-1.9
			C240.8,67.3,244.2,67.7,244.3,68.5z"/>
		<path class="st7" d="M275.5,86.3c-0.4,0.7-3.7-0.1-7.4-1.9s-3.4-2.4-3-3.1s0.6-1.4,4.3,0.4C273.1,83.4,275.8,85.5,275.5,86.3z"/>
	</g>
	<g>
		<path d="M22.4,134.3l3.4-10.2h1.7l3.4,10.2h-1.4l-0.9-2.9h-3.9l-0.9,2.9H22.4z M28.3,130.3l-1.6-4.8l-1.6,4.8H28.3z"/>
		<path d="M35.5,134.6c-0.6,0-1.1-0.1-1.6-0.2c-0.4-0.2-0.8-0.4-1.1-0.7c-0.4-0.4-0.6-0.8-0.8-1.3c-0.1-0.5-0.2-1.1-0.2-1.8v-6.4
			h1.4v6.4c0,0.5,0,0.9,0.1,1.2c0.1,0.3,0.2,0.6,0.4,0.9c0.2,0.3,0.4,0.5,0.7,0.6c0.3,0.1,0.7,0.2,1.1,0.2c0.4,0,0.8-0.1,1.1-0.2
			c0.3-0.1,0.6-0.4,0.8-0.6c0.2-0.3,0.3-0.5,0.3-0.9c0.1-0.3,0.1-0.7,0.1-1.2v-6.4h1.4v6.4c0,0.7-0.1,1.3-0.2,1.8
			c-0.1,0.5-0.4,0.9-0.8,1.3c-0.3,0.3-0.7,0.6-1.1,0.7C36.6,134.5,36.1,134.6,35.5,134.6z"/>
		<path d="M43.5,134.3v-9h-3.4v-1.2h8.2v1.2h-3.4v9H43.5z"/>
		<path d="M56.8,134.3h-1.4v-5h-4.7v5h-1.4v-10.2h1.4v4h4.7v-4h1.4V134.3z"/>
		<path d="M58.8,134.3v-10.2h6.4v1.2h-5v2.8h4.7v1.2h-4.7v3.8h5v1.2H58.8z"/>
		<path d="M74,134.3h-1.5l-4.5-8.8v8.8h-1.3v-10.2h1.9l4.1,8.1v-8.1H74V134.3z"/>
		<path d="M78.5,134.3v-9h-3.4v-1.2h8.2v1.2h-3.4v9H78.5z"/>
		<path d="M87.9,134.3h-4v-1h1.3v-8.1h-1.3v-1h4v1h-1.3v8.1h1.3V134.3z"/>
		<path d="M93.5,134.5c-0.7,0-1.3-0.1-1.8-0.3s-1-0.6-1.5-1c-0.4-0.4-0.7-1-0.9-1.7s-0.3-1.4-0.3-2.3c0-0.9,0.1-1.6,0.3-2.2
			c0.2-0.6,0.5-1.2,1-1.7c0.4-0.5,0.9-0.8,1.4-1c0.6-0.2,1.2-0.4,1.9-0.4c0.3,0,0.7,0,1,0.1c0.3,0.1,0.6,0.1,0.8,0.2
			c0.2,0.1,0.4,0.2,0.7,0.3c0.2,0.1,0.5,0.2,0.7,0.3v1.6h-0.1c-0.1-0.1-0.3-0.2-0.5-0.4c-0.2-0.2-0.4-0.3-0.7-0.5
			c-0.3-0.1-0.5-0.3-0.9-0.4c-0.3-0.1-0.7-0.1-1.1-0.1c-0.4,0-0.8,0.1-1.2,0.3s-0.7,0.4-1,0.8c-0.3,0.3-0.5,0.8-0.7,1.3
			c-0.2,0.5-0.2,1.1-0.2,1.8c0,0.7,0.1,1.3,0.3,1.8c0.2,0.5,0.4,0.9,0.7,1.3c0.3,0.3,0.6,0.6,1,0.8c0.4,0.2,0.8,0.3,1.2,0.3
			c0.4,0,0.8,0,1.1-0.1c0.3-0.1,0.6-0.2,0.9-0.4c0.3-0.1,0.5-0.3,0.7-0.4c0.2-0.1,0.3-0.3,0.4-0.4h0.1v1.6c-0.2,0.1-0.4,0.2-0.6,0.3
			c-0.2,0.1-0.4,0.2-0.7,0.3c-0.3,0.1-0.6,0.2-0.8,0.2C94.3,134.5,94,134.5,93.5,134.5z"/>
		<path d="M106.4,134.5c-0.7,0-1.3-0.1-1.8-0.3s-1-0.6-1.5-1s-0.7-1-0.9-1.7s-0.3-1.4-0.3-2.3c0-0.9,0.1-1.6,0.3-2.2
			c0.2-0.6,0.5-1.2,1-1.7c0.4-0.5,0.9-0.8,1.4-1c0.6-0.2,1.2-0.4,1.9-0.4c0.3,0,0.7,0,1,0.1c0.3,0.1,0.6,0.1,0.8,0.2
			c0.2,0.1,0.4,0.2,0.7,0.3c0.2,0.1,0.5,0.2,0.7,0.3v1.6h-0.1c-0.1-0.1-0.3-0.2-0.5-0.4c-0.2-0.2-0.4-0.3-0.7-0.5
			c-0.3-0.1-0.5-0.3-0.9-0.4c-0.3-0.1-0.7-0.1-1.1-0.1c-0.4,0-0.8,0.1-1.2,0.3c-0.4,0.2-0.7,0.4-1,0.8c-0.3,0.3-0.5,0.8-0.7,1.3
			c-0.2,0.5-0.2,1.1-0.2,1.8c0,0.7,0.1,1.3,0.3,1.8c0.2,0.5,0.4,0.9,0.7,1.3c0.3,0.3,0.6,0.6,1,0.8c0.4,0.2,0.8,0.3,1.2,0.3
			c0.4,0,0.8,0,1.1-0.1c0.3-0.1,0.6-0.2,0.9-0.4c0.3-0.1,0.5-0.3,0.7-0.4c0.2-0.1,0.3-0.3,0.4-0.4h0.1v1.6c-0.2,0.1-0.4,0.2-0.6,0.3
			c-0.2,0.1-0.4,0.2-0.7,0.3c-0.3,0.1-0.6,0.2-0.8,0.2C107.1,134.5,106.8,134.5,106.4,134.5z"/>
		<path d="M114.4,134.6c-0.6,0-1.1-0.1-1.6-0.2c-0.4-0.2-0.8-0.4-1.1-0.7c-0.4-0.4-0.6-0.8-0.8-1.3c-0.1-0.5-0.2-1.1-0.2-1.8v-6.4
			h1.4v6.4c0,0.5,0,0.9,0.1,1.2c0.1,0.3,0.2,0.6,0.4,0.9c0.2,0.3,0.4,0.5,0.7,0.6c0.3,0.1,0.7,0.2,1.1,0.2c0.4,0,0.8-0.1,1.1-0.2
			c0.3-0.1,0.6-0.4,0.8-0.6c0.2-0.3,0.3-0.5,0.3-0.9c0.1-0.3,0.1-0.7,0.1-1.2v-6.4h1.4v6.4c0,0.7-0.1,1.3-0.2,1.8
			c-0.1,0.5-0.4,0.9-0.8,1.3c-0.3,0.3-0.7,0.6-1.1,0.7C115.6,134.5,115,134.6,114.4,134.6z"/>
		<path d="M128,134.3h-1.8l-3.2-4.1h-1.6v4.1h-1.4v-10.2h2.6c0.6,0,1.1,0,1.5,0.1c0.4,0.1,0.8,0.2,1.1,0.4c0.4,0.2,0.6,0.5,0.8,0.9
			c0.2,0.4,0.3,0.8,0.3,1.3c0,0.8-0.2,1.4-0.6,1.9c-0.4,0.5-0.9,0.9-1.6,1.1L128,134.3z M125,127c0-0.3-0.1-0.6-0.2-0.8
			c-0.1-0.2-0.3-0.4-0.5-0.6c-0.2-0.1-0.4-0.2-0.7-0.3c-0.3-0.1-0.6-0.1-1-0.1h-1.3v3.9h1.2c0.4,0,0.7,0,1-0.1
			c0.3-0.1,0.6-0.2,0.8-0.4c0.2-0.2,0.3-0.4,0.4-0.7C125,127.7,125,127.4,125,127z"/>
		<path d="M136.7,134.3h-1.8l-3.2-4.1h-1.6v4.1h-1.4v-10.2h2.6c0.6,0,1.1,0,1.5,0.1c0.4,0.1,0.8,0.2,1.1,0.4
			c0.4,0.2,0.6,0.5,0.8,0.9c0.2,0.4,0.3,0.8,0.3,1.3c0,0.8-0.2,1.4-0.6,1.9c-0.4,0.5-0.9,0.9-1.6,1.1L136.7,134.3z M133.8,127
			c0-0.3-0.1-0.6-0.2-0.8c-0.1-0.2-0.3-0.4-0.5-0.6c-0.2-0.1-0.4-0.2-0.7-0.3c-0.3-0.1-0.6-0.1-1-0.1h-1.3v3.9h1.2
			c0.4,0,0.7,0,1-0.1c0.3-0.1,0.6-0.2,0.8-0.4c0.2-0.2,0.3-0.4,0.4-0.7C133.7,127.7,133.8,127.4,133.8,127z"/>
		<path d="M144.5,124.1l-3.5,5.7v4.5h-1.4V130l-3.5-5.8h1.5l2.6,4.5l2.7-4.5H144.5z"/>
		<path d="M157.3,134.3h-1.4v-5h-4.7v5h-1.4v-10.2h1.4v4h4.7v-4h1.4V134.3z"/>
		<path d="M166.6,125.3c0.4,0.4,0.7,1,0.9,1.7c0.2,0.7,0.3,1.4,0.3,2.3c0,0.8-0.1,1.6-0.3,2.2s-0.5,1.2-0.9,1.7
			c-0.4,0.5-0.9,0.8-1.5,1.1c-0.6,0.2-1.2,0.3-1.8,0.3c-0.7,0-1.3-0.1-1.9-0.4s-1-0.6-1.4-1c-0.4-0.5-0.7-1-0.9-1.7
			s-0.3-1.4-0.3-2.3c0-0.9,0.1-1.6,0.3-2.3c0.2-0.6,0.5-1.2,0.9-1.7c0.4-0.5,0.9-0.8,1.4-1c0.6-0.2,1.2-0.4,1.9-0.4
			c0.7,0,1.3,0.1,1.9,0.4C165.7,124.5,166.2,124.9,166.6,125.3z M166.4,129.2c0-0.7-0.1-1.3-0.2-1.8c-0.1-0.5-0.4-1-0.6-1.3
			c-0.3-0.4-0.6-0.6-1-0.8c-0.4-0.2-0.8-0.3-1.3-0.3c-0.5,0-0.9,0.1-1.3,0.3c-0.4,0.2-0.7,0.4-1,0.8c-0.3,0.3-0.5,0.8-0.6,1.3
			c-0.1,0.5-0.2,1.1-0.2,1.8c0,1.3,0.3,2.4,0.8,3.1c0.6,0.7,1.3,1.1,2.3,1.1c0.9,0,1.7-0.4,2.3-1.1
			C166.1,131.6,166.4,130.6,166.4,129.2z"/>
		<path d="M172.9,134.6c-0.6,0-1.1-0.1-1.6-0.2c-0.4-0.2-0.8-0.4-1.1-0.7c-0.4-0.4-0.6-0.8-0.8-1.3c-0.1-0.5-0.2-1.1-0.2-1.8v-6.4
			h1.4v6.4c0,0.5,0,0.9,0.1,1.2c0.1,0.3,0.2,0.6,0.4,0.9c0.2,0.3,0.4,0.5,0.7,0.6c0.3,0.1,0.7,0.2,1.1,0.2c0.4,0,0.8-0.1,1.1-0.2
			c0.3-0.1,0.6-0.4,0.8-0.6c0.2-0.3,0.3-0.5,0.3-0.9c0.1-0.3,0.1-0.7,0.1-1.2v-6.4h1.4v6.4c0,0.7-0.1,1.3-0.2,1.8
			c-0.1,0.5-0.4,0.9-0.8,1.3c-0.3,0.3-0.7,0.6-1.1,0.7C174,134.5,173.5,134.6,172.9,134.6z"/>
		<path d="M181.4,134.5c-0.7,0-1.4-0.1-1.9-0.2c-0.5-0.2-1-0.3-1.5-0.6V132h0.1c0.4,0.4,1,0.7,1.5,1c0.6,0.2,1.1,0.3,1.6,0.3
			c0.8,0,1.3-0.2,1.7-0.5c0.4-0.3,0.6-0.7,0.6-1.2c0-0.4-0.1-0.7-0.3-1c-0.2-0.3-0.5-0.4-1-0.6c-0.3-0.1-0.6-0.2-0.9-0.2
			c-0.3-0.1-0.6-0.1-1-0.2c-0.4-0.1-0.7-0.2-0.9-0.4c-0.3-0.1-0.5-0.3-0.7-0.6c-0.2-0.2-0.4-0.5-0.5-0.8c-0.1-0.3-0.2-0.7-0.2-1.1
			c0-0.8,0.3-1.5,1-2.1c0.6-0.6,1.5-0.8,2.5-0.8c0.6,0,1.1,0.1,1.6,0.2c0.5,0.1,1,0.3,1.4,0.5v1.6h-0.1c-0.3-0.3-0.7-0.6-1.2-0.8
			c-0.5-0.2-1-0.3-1.6-0.3c-0.6,0-1.1,0.1-1.5,0.4c-0.4,0.3-0.6,0.7-0.6,1.2c0,0.4,0.1,0.8,0.3,1c0.2,0.3,0.6,0.4,1,0.6
			c0.3,0.1,0.6,0.2,1.1,0.3c0.4,0.1,0.8,0.2,1,0.3c0.7,0.2,1.2,0.5,1.5,1c0.3,0.4,0.5,1,0.5,1.6c0,0.4-0.1,0.8-0.2,1.2
			c-0.2,0.4-0.4,0.7-0.7,1c-0.3,0.3-0.7,0.5-1.1,0.7C182.5,134.5,182,134.5,181.4,134.5z"/>
		<path d="M186.4,134.3v-10.2h6.4v1.2h-5v2.8h4.7v1.2h-4.7v3.8h5v1.2H186.4z"/>
	</g>
</g>
</svg>
