<?xml version="1.0" encoding="utf-8"?>
<!-- Generator: Adobe Illustrator 19.2.1, SVG Export Plug-In . SVG Version: 6.00 Build 0)  -->
<svg version="1.1" id="Layer_1" xmlns="http://www.w3.org/2000/svg" xmlns:xlink="http://www.w3.org/1999/xlink" x="0px" y="0px"
	 viewBox="0 0 367.5 149.4" style="enable-background:new 0 0 367.5 149.4;" xml:space="preserve">
<style type="text/css">
	.st0{fill:#333333;}
	.st1{fill:none;stroke:#2AB16E;stroke-width:7;stroke-miterlimit:10;}
</style>
<g>
	<path class="st0" d="M15.9,86.2l15.9-1l-0.3,10H5.9l-0.7-8.6l17.2-22.7L5.7,65.7L5.4,55.1h26.3l0,8.4L15.9,86.2z"/>
	<path class="st0" d="M32.8,95l12-39.7l4.8,0.6L62.5,94l-7.4,1.5l-1.9-6.4H42.4l-1.6,7.7L32.8,95z M47.1,69.8l-2.8,11.5l6.6,0.3
		L47.1,69.8z"/>
	<path class="st0" d="M80,95.3l-7.7-12.1l0,0v13.2l-7-0.8l-1.5-40.2l8.5-0.4v14.5l8.2-12.5l6.4,2l-9.2,16.7l9.6,17.7L80,95.3z"/>
	<path class="st0" d="M98.1,79.5c-9.4-3.5-11.8-10.4-7.3-20.6c0.6-1.4,1.7-2.3,3.5-2.8c1.7-0.5,4-0.8,6.9-0.8c3.9,0.2,6.3,0.8,7.1,2
		c1.6,2.6,2.4,5.2,2.3,7.8c-0.1,2.6-0.6,4.8-1.6,6.8l-6.4-0.8c1.4-2.2,1.5-4.3,0.5-6c-0.4-0.8-1.5-1.2-3.1-1.2c-1.8,0-3,0.2-3.4,0.5
		c-0.9,0.4-1.3,0.9-1.4,1.6c-0.4,2.8,0.8,4.7,3.6,5.7c7.8,3.6,11.7,7.6,11.9,12c0.1,5.3-0.6,8.4-2,9.3c-2.5,1.9-6,3-10.5,3.4
		c-4.6,0-7.4-1.8-8.3-5.4c-0.5-2.2-0.5-5.5-0.1-9.7l5.9-0.3c0,1.3,0.1,2.5,0.3,3.3c0.3,2.1,1.4,3.3,3.2,3.6c2.5,0,4-1.1,4.4-3.1
		C104,83.2,102.2,81.4,98.1,79.5z"/>
	<path class="st0" d="M236.3,78.3c1.3,1.1,2.1,2.4,2.3,4c0.9,3.7,0.8,7.7-0.3,11.9c-0.7,2.2-5,3-13,2.4l-7.7-0.8L216.9,55h11.4
		c7.2,0.3,10.8,1.8,11.1,4.7c0.2,6.9-0.1,11.9-1.1,15C237.9,76.3,237.2,77.5,236.3,78.3z M225,63.7l0.1,10.3l4.5,0
		c2-0.1,3-1.9,2.8-5.6c-0.1-2.4-0.7-3.9-1.7-4.3C229.7,63.4,227.8,63.3,225,63.7z M225.1,81.2l0.1,8.1c2.8,0,4.6-0.1,5.5-0.4
		c1.1-0.3,1.5-1.2,1.4-2.9c0-3-0.8-4.6-2.5-4.8L225.1,81.2z"/>
	<path class="st0" d="M264.1,88.6c-0.2,3.8-2.5,6.3-6.9,7.5c-2.7,0.6-6.4,0.2-11.3-1c-2.4-0.6-3.9-2.6-4.4-6.1
		c-0.8-6.5-0.6-17.5,0.7-33l7.9,0.6c-1.2,14.1-1.6,23.3-1.1,27.7c0.2,2,0.9,3.2,1.9,3.6c1,0.4,2,0.5,2.9,0.2
		c1.4-0.3,2.2-1.3,2.6-3.1c0.8-5,0.4-13.7-1.2-26.3l7.8-1C264.1,69.4,264.5,79.7,264.1,88.6z"/>
	<path class="st0" d="M274.7,81.9v14.4l-7.2-0.6l-1.3-40.5c14.4-1.3,21.7,0.4,22,5.3c0.2,6.9-0.3,11.9-1.4,14.9
		c-0.6,2.3-1.9,3.7-4.1,4.2l-0.5,0.1l7.2,12.8l-4.7,4.6L274.7,81.9z M274.8,62.7v11c4.2-0.3,6.3-2.4,6.5-6.1c0.3-2.2-0.1-3.5-1.2-4
		C279,63,277.2,62.7,274.8,62.7z"/>
	<path class="st0" d="M302,72.6l12,0l-0.5,15.7c-0.3,5.1-2.8,7.8-7.3,8.2c-2.9,0.2-5,0.1-6.4-0.5c-3.7-1-6-3.7-7-8.2
		c-1.7-10.1-2.1-19.2-1.2-27.3c0.4-2.6,1.7-4.1,3.9-4.6c5.3-1.3,9.4-1.6,12.2-1c4.2,1.2,6.4,3.8,6.5,7.8c0.1,1.8,0.1,3.8,0,5.9
		l-7,0.6c-0.1-1-0.2-2-0.3-3c-0.3-1.9-1.1-3-2.4-3.1c-2-0.4-3.4-0.4-4.4,0.1c-1,0.4-1.6,1.7-1.8,3.8c-0.4,4.6-0.1,10.7,1,18.4
		c0.6,2.2,2.2,3,4.9,2.5c1.7-0.3,2.5-1.4,2.6-3.4L307,80l-5.3,0.3L302,72.6z"/>
	<path class="st0" d="M317.1,94.6L316,56.8l21.3,0.9l-0.5,7.1L324,65.4v4.4l9.4,0.6v7.2L324,78v8h12.8l-0.2,7.3L317.1,94.6z"/>
	<path class="st0" d="M348.2,81.9v14.4l-7.2-0.6l-1.3-40.5c14.4-1.3,21.7,0.4,22,5.3c0.2,6.9-0.3,11.9-1.4,14.9
		c-0.6,2.3-1.9,3.7-4.1,4.2l-0.5,0.1l7.2,12.8l-4.7,4.6L348.2,81.9z M348.3,62.7v11c4.2-0.3,6.3-2.4,6.5-6.1c0.3-2.2-0.1-3.5-1.2-4
		C352.5,63,350.8,62.7,348.3,62.7z"/>
	<path class="st1" d="M134.8,67.3c0-16.7,13.6-30.3,30.3-30.3c16.7,0,30.3,13.6,30.3,30.3H134.8z"/>
	<path class="st1" d="M134.8,102.6c0,5.6,4.5,10.1,10.1,10.1h40.4c5.6,0,10.1-4.5,10.1-10.1L134.8,102.6z"/>
	<path class="st1" d="M127.3,84.9c4.2-4.2,11-4.2,15.2,0h0c4.2,4.2,11,4.2,15.2,0h0c4.2-4.2,11-4.2,15.2,0h0c4.2,4.2,11,4.2,15.2,0
		h0c4.2-4.2,11-4.2,15.2,0c-4.2-4.2-11-4.2-15.2,0h0c-4.2,4.2-11,4.2-15.2,0h0c-4.2-4.2-11-4.2-15.2,0h0c-4.2,4.2-11,4.2-15.2,0h0
		C138.2,80.7,131.4,80.7,127.3,84.9z"/>
	<path class="st1" d="M139.9,74.8h50.5H139.9z"/>
	<path class="st1" d="M139.9,95h50.5H139.9z"/>
</g>
</svg>
